<svg xmlns="http://www.w3.org/2000/svg" viewBox="0 0 96 80" shape-rendering="crispEdges" role="img" aria-labelledby="title"><title id="title">航空公司</title><polygon points="5,62 69,58 94,65 77,76 13,76 1,70" fill="#b5c99e"/><polygon points="1,70 13,76 77,76 94,65 94,69 78,80 12,80 1,75" fill="#829e83"/><polygon points="7,64 71,61 88,66 74,72 16,72" fill="#d0d8b1"/><polygon points="3,62 52,58 91,64 83,71 20,73" fill="#a9b4a0"/><rect x="8" y="67" width="12" height="2" fill="#f8efd8"/><rect x="26" y="67" width="12" height="2" fill="#f8efd8"/><rect x="45" y="66" width="10" height="2" fill="#f8efd8"/><rect x="7" y="37" width="43" height="19" fill="#f0dfb8"/><rect x="6" y="33" width="45" height="4" fill="#5d887e"/><rect x="11" y="29" width="34" height="4" fill="#aabbaa"/><rect x="10" y="39" width="4" height="6" fill="#739fa8"/><rect x="10" y="39" width="4" height="1" fill="#c6e2d6"/><rect x="17" y="39" width="4" height="6" fill="#739fa8"/><rect x="17" y="39" width="4" height="1" fill="#c6e2d6"/><rect x="24" y="39" width="4" height="6" fill="#739fa8"/><rect x="24" y="39" width="4" height="1" fill="#c6e2d6"/><rect x="31" y="39" width="4" height="6" fill="#739fa8"/><rect x="31" y="39" width="4" height="1" fill="#c6e2d6"/><rect x="38" y="39" width="4" height="6" fill="#739fa8"/><rect x="38" y="39" width="4" height="1" fill="#c6e2d6"/><rect x="12" y="48" width="32" height="8" fill="#92adb0"/><rect x="18" y="48" width="2" height="8" fill="#f0dfb8"/><rect x="32" y="48" width="2" height="8" fill="#f0dfb8"/><rect x="20" y="18" width="8" height="17" fill="#c0baa0"/><rect x="15" y="11" width="19" height="12" fill="#739fa8"/><rect x="17" y="8" width="15" height="3" fill="#4c6059"/><rect x="15" y="11" width="19" height="2" fill="#f0dfb8"/><rect x="21" y="13" width="2" height="8" fill="#f0dfb8"/><rect x="29" y="13" width="2" height="8" fill="#f0dfb8"/><rect x="24" y="3" width="2" height="5" fill="#4c6059"/><rect x="22" y="2" width="6" height="2" fill="#d6aa60"/><polygon points="43,55 69,53 71,29 75,29 79,51 90,48 93,50 86,57 94,62 92,65 79,61 69,65 52,65 42,60" fill="#4c6059"/><polygon points="45,55 69,54 72,31 74,31 78,54 90,50 91,51 84,58 91,63 90,64 78,59 68,63 52,63 44,59" fill="#f8efd8"/><rect x="51" y="56" width="24" height="3" fill="#d9dbbc"/><rect x="49" y="55" width="7" height="3" fill="#739fa8"/><rect x="58" y="55" width="3" height="2" fill="#739fa8"/><rect x="64" y="55" width="3" height="2" fill="#739fa8"/><rect x="70" y="55" width="3" height="2" fill="#739fa8"/><rect x="73" y="31" width="1" height="13" fill="#b97560"/><rect x="53" y="63" width="4" height="3" fill="#4c6059"/><rect x="75" y="61" width="4" height="3" fill="#4c6059"/><rect x="3" y="53" width="3" height="7" fill="#d6aa60"/><rect x="4" y="48" width="1" height="5" fill="#4c6059"/><rect x="4" y="48" width="9" height="3" fill="#b97560"/><g transform="translate(35 52)"><rect x="1" y="0" width="3" height="2" fill="#4c6059"/><rect x="1" y="2" width="3" height="3" fill="#eac89e"/><rect x="0" y="5" width="5" height="5" fill="#d6aa60"/><rect x="0" y="10" width="2" height="3" fill="#4c6059"/><rect x="3" y="10" width="2" height="3" fill="#4c6059"/></g><g transform="translate(3 61)"><rect x="2" y="2" width="8" height="8" fill="#709476"/><rect x="0" y="5" width="12" height="5" fill="#709476"/><rect x="3" y="3" width="4" height="3" fill="#a0ba84"/><rect x="4" y="10" width="4" height="3" fill="#8c7e5d"/></g></svg>
