<svg xmlns="http://www.w3.org/2000/svg" viewBox="0 0 96 80" shape-rendering="crispEdges"><polygon points="5,62 69,57 94,64 76,75 13,76 1,70" fill="#b6c79e"/><polygon points="1,70 13,76 76,75 94,64 94,69 77,80 12,80 1,75" fill="#81977b"/><polygon points="7,64 71,60 88,65 73,71 16,72" fill="#cbd5ae"/><rect x="51" y="39" width="27" height="18" fill="#f7e4b4"/><rect x="78" y="41" width="4" height="16" fill="#cbb994"/><rect x="47" y="39" width="35" height="3" fill="#4a6860"/><rect x="50" y="36" width="29" height="3" fill="#678675"/><rect x="54" y="33" width="21" height="3" fill="#678675"/><rect x="58" y="31" width="13" height="2" fill="#678675"/><rect x="47" y="37" width="3" height="2" fill="#678675"/><rect x="79" y="37" width="3" height="2" fill="#678675"/><rect x="55" y="35" width="19" height="1" fill="#d7bb73"/><rect x="54" y="44" width="4" height="5" fill="#799b97"/><rect x="72" y="44" width="3" height="5" fill="#799b97"/><rect x="62.5" y="49" width="5" height="8" fill="#866f55"/><g transform="translate(4 33)"><rect x="7" y="15" width="3" height="12" fill="#887657"/><rect x="3" y="5" width="12" height="13" fill="#709b68"/><rect x="0" y="9" width="18" height="8" fill="#709b68"/><rect x="6" y="2" width="6" height="5" fill="#709b68"/><rect x="4" y="7" width="5" height="6" fill="#a3bb7e"/><rect x="4" y="26" width="12" height="2" fill="#8ea68a"/></g><g transform="translate(20 33)"><rect x="2" y="0" width="8" height="8" fill="#354c42"/><rect x="23" y="0" width="8" height="8" fill="#354c42"/><rect x="4" y="6" width="25" height="20" fill="#f9eed4"/><rect x="5" y="13" width="8" height="8" fill="#43594d"/><rect x="20" y="13" width="8" height="8" fill="#43594d"/><rect x="8" y="14" width="2" height="2" fill="#fff"/><rect x="21" y="14" width="2" height="2" fill="#fff"/><rect x="14" y="22" width="5" height="3" fill="#43594d"/><rect x="5" y="26" width="23" height="12" fill="#f6ecd1"/><rect x="1" y="26" width="7" height="11" fill="#43594d"/><rect x="25" y="26" width="7" height="11" fill="#43594d"/><rect x="5" y="35" width="7" height="5" fill="#43594d"/><rect x="21" y="35" width="7" height="5" fill="#43594d"/></g><rect x="82" y="25" width="3" height="42" fill="#638d65"/><rect x="76" y="34" width="14" height="3" fill="#638d65"/><rect x="80" y="45" width="13" height="3" fill="#739b6c"/><g transform="translate(63 60)"><rect x="1" y="0" width="3" height="3" fill="#584e43"/><rect x="1" y="2" width="3" height="3" fill="#f0cc9a"/><rect x="0" y="5" width="5" height="5" fill="#d99560"/><rect x="0" y="10" width="2" height="3" fill="#526357"/><rect x="3" y="10" width="2" height="3" fill="#526357"/></g></svg>