<svg xmlns="http://www.w3.org/2000/svg" viewBox="0 0 128 116" shape-rendering="crispEdges" role="img" aria-labelledby="title"><title id="title">大理 · 崇圣寺三塔</title><rect x="81" y="79" width="12" height="1" fill="#bfd0a4"/><rect x="60" y="80" width="35" height="1" fill="#bfd0a4"/><rect x="39" y="81" width="59" height="1" fill="#bfd0a4"/><rect x="18" y="82" width="83" height="1" fill="#bfd0a4"/><rect x="7" y="83" width="96" height="1" fill="#bfd0a4"/><rect x="7" y="84" width="99" height="1" fill="#bfd0a4"/><rect x="7" y="85" width="101" height="1" fill="#bfd0a4"/><rect x="7" y="86" width="104" height="1" fill="#bfd0a4"/><rect x="7" y="87" width="106" height="1" fill="#bfd0a4"/><rect x="6" y="88" width="110" height="1" fill="#bfd0a4"/><rect x="6" y="89" width="113" height="1" fill="#bfd0a4"/><rect x="6" y="90" width="115" height="1" fill="#bfd0a4"/><rect x="6" y="91" width="116" height="1" fill="#bfd0a4"/><rect x="6" y="92" width="114" height="1" fill="#bfd0a4"/><rect x="5" y="93" width="114" height="1" fill="#bfd0a4"/><rect x="5" y="94" width="113" height="1" fill="#bfd0a4"/><rect x="5" y="95" width="111" height="1" fill="#bfd0a4"/><rect x="5" y="96" width="110" height="1" fill="#bfd0a4"/><rect x="5" y="97" width="109" height="1" fill="#bfd0a4"/><rect x="5" y="98" width="107" height="1" fill="#bfd0a4"/><rect x="7" y="99" width="104" height="1" fill="#bfd0a4"/><rect x="9" y="100" width="101" height="1" fill="#bfd0a4"/><rect x="11" y="101" width="97" height="1" fill="#bfd0a4"/><rect x="13" y="102" width="94" height="1" fill="#bfd0a4"/><rect x="15" y="103" width="91" height="1" fill="#bfd0a4"/><rect x="17" y="104" width="87" height="1" fill="#bfd0a4"/><rect x="19" y="105" width="71" height="1" fill="#bfd0a4"/><rect x="21" y="106" width="42" height="1" fill="#bfd0a4"/><rect x="23" y="107" width="14" height="1" fill="#bfd0a4"/><rect x="120" y="92" width="2" height="1" fill="#849b7d"/><rect x="119" y="93" width="3" height="1" fill="#849b7d"/><rect x="118" y="94" width="4" height="1" fill="#849b7d"/><rect x="116" y="95" width="6" height="1" fill="#849b7d"/><rect x="115" y="96" width="7" height="1" fill="#849b7d"/><rect x="114" y="97" width="8" height="1" fill="#849b7d"/><rect x="4" y="98" width="1" height="1" fill="#849b7d"/><rect x="112" y="98" width="10" height="1" fill="#849b7d"/><rect x="4" y="99" width="3" height="1" fill="#849b7d"/><rect x="111" y="99" width="10" height="1" fill="#849b7d"/><rect x="4" y="100" width="5" height="1" fill="#849b7d"/><rect x="110" y="100" width="9" height="1" fill="#849b7d"/><rect x="4" y="101" width="7" height="1" fill="#849b7d"/><rect x="108" y="101" width="10" height="1" fill="#849b7d"/><rect x="4" y="102" width="9" height="1" fill="#849b7d"/><rect x="107" y="102" width="10" height="1" fill="#849b7d"/><rect x="4" y="103" width="11" height="1" fill="#849b7d"/><rect x="106" y="103" width="9" height="1" fill="#849b7d"/><rect x="4" y="104" width="13" height="1" fill="#849b7d"/><rect x="104" y="104" width="10" height="1" fill="#849b7d"/><rect x="6" y="105" width="13" height="1" fill="#849b7d"/><rect x="90" y="105" width="23" height="1" fill="#849b7d"/><rect x="8" y="106" width="13" height="1" fill="#849b7d"/><rect x="63" y="106" width="49" height="1" fill="#849b7d"/><rect x="10" y="107" width="13" height="1" fill="#849b7d"/><rect x="37" y="107" width="73" height="1" fill="#849b7d"/><rect x="12" y="108" width="97" height="1" fill="#849b7d"/><rect x="14" y="109" width="94" height="1" fill="#849b7d"/><rect x="16" y="110" width="90" height="1" fill="#849b7d"/><rect x="18" y="111" width="87" height="1" fill="#849b7d"/><rect x="20" y="112" width="64" height="1" fill="#849b7d"/><rect x="22" y="113" width="22" height="1" fill="#849b7d"/><rect x="76" y="82" width="14" height="1" fill="#d2dbb7"/><rect x="50" y="83" width="42" height="1" fill="#d2dbb7"/><rect x="24" y="84" width="71" height="1" fill="#d2dbb7"/><rect x="11" y="85" width="87" height="1" fill="#d2dbb7"/><rect x="11" y="86" width="89" height="1" fill="#d2dbb7"/><rect x="11" y="87" width="92" height="1" fill="#d2dbb7"/><rect x="11" y="88" width="94" height="1" fill="#d2dbb7"/><rect x="11" y="89" width="97" height="1" fill="#d2dbb7"/><rect x="10" y="90" width="101" height="1" fill="#d2dbb7"/><rect x="10" y="91" width="103" height="1" fill="#d2dbb7"/><rect x="10" y="92" width="104" height="1" fill="#d2dbb7"/><rect x="10" y="93" width="102" height="1" fill="#d2dbb7"/><rect x="10" y="94" width="101" height="1" fill="#d2dbb7"/><rect x="10" y="95" width="99" height="1" fill="#d2dbb7"/><rect x="11" y="96" width="96" height="1" fill="#d2dbb7"/><rect x="13" y="97" width="93" height="1" fill="#d2dbb7"/><rect x="15" y="98" width="89" height="1" fill="#d2dbb7"/><rect x="17" y="99" width="86" height="1" fill="#d2dbb7"/><rect x="20" y="100" width="81" height="1" fill="#d2dbb7"/><rect x="22" y="101" width="60" height="1" fill="#d2dbb7"/><rect x="24" y="102" width="20" height="1" fill="#d2dbb7"/><rect x="74" y="21" width="1" height="1" fill="#b5c4a3"/><rect x="73" y="22" width="3" height="1" fill="#b5c4a3"/><rect x="72" y="23" width="5" height="1" fill="#b5c4a3"/><rect x="71" y="24" width="6" height="1" fill="#b5c4a3"/><rect x="70" y="25" width="8" height="1" fill="#b5c4a3"/><rect x="69" y="26" width="10" height="1" fill="#b5c4a3"/><rect x="68" y="27" width="12" height="1" fill="#b5c4a3"/><rect x="67" y="28" width="14" height="1" fill="#b5c4a3"/><rect x="66" y="29" width="16" height="1" fill="#b5c4a3"/><rect x="65" y="30" width="18" height="1" fill="#b5c4a3"/><rect x="64" y="31" width="19" height="1" fill="#b5c4a3"/><rect x="63" y="32" width="21" height="1" fill="#b5c4a3"/><rect x="62" y="33" width="23" height="1" fill="#b5c4a3"/><rect x="61" y="34" width="25" height="1" fill="#b5c4a3"/><rect x="25" y="35" width="1" height="1" fill="#b5c4a3"/><rect x="60" y="35" width="27" height="1" fill="#b5c4a3"/><rect x="24" y="36" width="3" height="1" fill="#b5c4a3"/><rect x="60" y="36" width="28" height="1" fill="#b5c4a3"/><rect x="24" y="37" width="5" height="1" fill="#b5c4a3"/><rect x="59" y="37" width="30" height="1" fill="#b5c4a3"/><rect x="23" y="38" width="7" height="1" fill="#b5c4a3"/><rect x="58" y="38" width="31" height="1" fill="#b5c4a3"/><rect x="22" y="39" width="9" height="1" fill="#b5c4a3"/><rect x="57" y="39" width="33" height="1" fill="#b5c4a3"/><rect x="22" y="40" width="10" height="1" fill="#b5c4a3"/><rect x="56" y="40" width="35" height="1" fill="#b5c4a3"/><rect x="21" y="41" width="13" height="1" fill="#b5c4a3"/><rect x="55" y="41" width="37" height="1" fill="#b5c4a3"/><rect x="20" y="42" width="15" height="1" fill="#b5c4a3"/><rect x="54" y="42" width="39" height="1" fill="#b5c4a3"/><rect x="19" y="43" width="17" height="1" fill="#b5c4a3"/><rect x="53" y="43" width="41" height="1" fill="#b5c4a3"/><rect x="19" y="44" width="18" height="1" fill="#b5c4a3"/><rect x="52" y="44" width="43" height="1" fill="#b5c4a3"/><rect x="18" y="45" width="21" height="1" fill="#b5c4a3"/><rect x="51" y="45" width="44" height="1" fill="#b5c4a3"/><rect x="17" y="46" width="23" height="1" fill="#b5c4a3"/><rect x="50" y="46" width="46" height="1" fill="#b5c4a3"/><rect x="17" y="47" width="24" height="1" fill="#b5c4a3"/><rect x="49" y="47" width="48" height="1" fill="#b5c4a3"/><rect x="16" y="48" width="26" height="1" fill="#b5c4a3"/><rect x="48" y="48" width="50" height="1" fill="#b5c4a3"/><rect x="15" y="49" width="29" height="1" fill="#b5c4a3"/><rect x="47" y="49" width="52" height="1" fill="#b5c4a3"/><rect x="14" y="50" width="31" height="1" fill="#b5c4a3"/><rect x="46" y="50" width="55" height="1" fill="#b5c4a3"/><rect x="14" y="51" width="88" height="1" fill="#b5c4a3"/><rect x="13" y="52" width="91" height="1" fill="#b5c4a3"/><rect x="12" y="53" width="93" height="1" fill="#b5c4a3"/><rect x="12" y="54" width="94" height="1" fill="#b5c4a3"/><rect x="11" y="55" width="97" height="1" fill="#b5c4a3"/><rect x="10" y="56" width="99" height="1" fill="#b5c4a3"/><rect x="10" y="57" width="101" height="1" fill="#b5c4a3"/><rect x="9" y="58" width="103" height="1" fill="#b5c4a3"/><rect x="8" y="59" width="106" height="1" fill="#b5c4a3"/><rect x="7" y="60" width="108" height="1" fill="#b5c4a3"/><rect x="7" y="61" width="110" height="1" fill="#b5c4a3"/><rect x="6" y="62" width="112" height="1" fill="#b5c4a3"/><rect x="5" y="63" width="114" height="1" fill="#b5c4a3"/><rect x="5" y="64" width="116" height="1" fill="#b5c4a3"/><rect x="4" y="65" width="118" height="1" fill="#b5c4a3"/><rect x="64" y="66" width="60" height="1" fill="#b5c4a3"/><rect x="60" y="2" width="2" height="10" fill="#d2a14f"/><rect x="54" y="14" width="13" height="10" fill="#fff0cb"/><rect x="59" y="17" width="4" height="7" fill="#3f6c61"/><rect x="51" y="14" width="19" height="3" fill="#3f6c61"/><rect x="54" y="11" width="13" height="3" fill="#dcc28e"/><rect x="58" y="8" width="5" height="3" fill="#dcc28e"/><rect x="50" y="12" width="4" height="2" fill="#dcc28e"/><rect x="67" y="12" width="4" height="2" fill="#dcc28e"/><rect x="53" y="25" width="16" height="10" fill="#fff0cb"/><rect x="59" y="28" width="4" height="7" fill="#3f6c61"/><rect x="50" y="25" width="22" height="3" fill="#3f6c61"/><rect x="53" y="22" width="16" height="3" fill="#dcc28e"/><rect x="57" y="19" width="8" height="3" fill="#dcc28e"/><rect x="49" y="23" width="4" height="2" fill="#dcc28e"/><rect x="69" y="23" width="4" height="2" fill="#dcc28e"/><rect x="51" y="36" width="19" height="10" fill="#fff0cb"/><rect x="59" y="39" width="4" height="7" fill="#3f6c61"/><rect x="48" y="36" width="25" height="3" fill="#3f6c61"/><rect x="51" y="33" width="19" height="3" fill="#dcc28e"/><rect x="55" y="30" width="11" height="3" fill="#dcc28e"/><rect x="60" y="27" width="1" height="3" fill="#dcc28e"/><rect x="47" y="34" width="4" height="2" fill="#dcc28e"/><rect x="70" y="34" width="4" height="2" fill="#dcc28e"/><rect x="50" y="47" width="22" height="10" fill="#fff0cb"/><rect x="59" y="50" width="4" height="7" fill="#3f6c61"/><rect x="47" y="47" width="28" height="3" fill="#3f6c61"/><rect x="50" y="44" width="22" height="3" fill="#dcc28e"/><rect x="54" y="41" width="14" height="3" fill="#dcc28e"/><rect x="59" y="38" width="4" height="3" fill="#dcc28e"/><rect x="46" y="45" width="4" height="2" fill="#dcc28e"/><rect x="72" y="45" width="4" height="2" fill="#dcc28e"/><rect x="48" y="58" width="25" height="10" fill="#fff0cb"/><rect x="59" y="61" width="4" height="7" fill="#3f6c61"/><rect x="45" y="58" width="31" height="3" fill="#3f6c61"/><rect x="48" y="55" width="25" height="3" fill="#dcc28e"/><rect x="52" y="52" width="17" height="3" fill="#dcc28e"/><rect x="57" y="49" width="7" height="3" fill="#dcc28e"/><rect x="44" y="56" width="4" height="2" fill="#dcc28e"/><rect x="73" y="56" width="4" height="2" fill="#dcc28e"/><rect x="47" y="69" width="28" height="10" fill="#fff0cb"/><rect x="59" y="72" width="4" height="7" fill="#3f6c61"/><rect x="44" y="69" width="34" height="3" fill="#3f6c61"/><rect x="47" y="66" width="28" height="3" fill="#dcc28e"/><rect x="51" y="63" width="20" height="3" fill="#dcc28e"/><rect x="56" y="60" width="10" height="3" fill="#dcc28e"/><rect x="43" y="67" width="4" height="2" fill="#dcc28e"/><rect x="75" y="67" width="4" height="2" fill="#dcc28e"/><rect x="45" y="80" width="31" height="10" fill="#fff0cb"/><rect x="59" y="83" width="4" height="7" fill="#3f6c61"/><rect x="42" y="80" width="37" height="3" fill="#3f6c61"/><rect x="45" y="77" width="31" height="3" fill="#dcc28e"/><rect x="49" y="74" width="23" height="3" fill="#dcc28e"/><rect x="54" y="71" width="13" height="3" fill="#dcc28e"/><rect x="41" y="78" width="4" height="2" fill="#dcc28e"/><rect x="76" y="78" width="4" height="2" fill="#dcc28e"/><rect x="26" y="36" width="2" height="10" fill="#d2a14f"/><rect x="21" y="48" width="12" height="10" fill="#fff0cb"/><rect x="25" y="51" width="4" height="7" fill="#3f6c61"/><rect x="18" y="48" width="18" height="3" fill="#3f6c61"/><rect x="21" y="45" width="12" height="3" fill="#dcc28e"/><rect x="25" y="42" width="4" height="3" fill="#dcc28e"/><rect x="17" y="46" width="4" height="2" fill="#dcc28e"/><rect x="33" y="46" width="4" height="2" fill="#dcc28e"/><rect x="20" y="59" width="15" height="10" fill="#fff0cb"/><rect x="25" y="62" width="4" height="7" fill="#3f6c61"/><rect x="17" y="59" width="21" height="3" fill="#3f6c61"/><rect x="20" y="56" width="15" height="3" fill="#dcc28e"/><rect x="24" y="53" width="7" height="3" fill="#dcc28e"/><rect x="16" y="57" width="4" height="2" fill="#dcc28e"/><rect x="35" y="57" width="4" height="2" fill="#dcc28e"/><rect x="18" y="70" width="18" height="10" fill="#fff0cb"/><rect x="25" y="73" width="4" height="7" fill="#3f6c61"/><rect x="15" y="70" width="24" height="3" fill="#3f6c61"/><rect x="18" y="67" width="18" height="3" fill="#dcc28e"/><rect x="22" y="64" width="10" height="3" fill="#dcc28e"/><rect x="14" y="68" width="4" height="2" fill="#dcc28e"/><rect x="36" y="68" width="4" height="2" fill="#dcc28e"/><rect x="17" y="81" width="21" height="10" fill="#fff0cb"/><rect x="25" y="84" width="4" height="7" fill="#3f6c61"/><rect x="14" y="81" width="27" height="3" fill="#3f6c61"/><rect x="17" y="78" width="21" height="3" fill="#dcc28e"/><rect x="21" y="75" width="13" height="3" fill="#dcc28e"/><rect x="26" y="72" width="3" height="3" fill="#dcc28e"/><rect x="13" y="79" width="4" height="2" fill="#dcc28e"/><rect x="38" y="79" width="4" height="2" fill="#dcc28e"/><rect x="92" y="36" width="2" height="10" fill="#d2a14f"/><rect x="87" y="48" width="12" height="10" fill="#fff0cb"/><rect x="91" y="51" width="4" height="7" fill="#3f6c61"/><rect x="84" y="48" width="18" height="3" fill="#3f6c61"/><rect x="87" y="45" width="12" height="3" fill="#dcc28e"/><rect x="91" y="42" width="4" height="3" fill="#dcc28e"/><rect x="83" y="46" width="4" height="2" fill="#dcc28e"/><rect x="99" y="46" width="4" height="2" fill="#dcc28e"/><rect x="86" y="59" width="15" height="10" fill="#fff0cb"/><rect x="91" y="62" width="4" height="7" fill="#3f6c61"/><rect x="83" y="59" width="21" height="3" fill="#3f6c61"/><rect x="86" y="56" width="15" height="3" fill="#dcc28e"/><rect x="90" y="53" width="7" height="3" fill="#dcc28e"/><rect x="82" y="57" width="4" height="2" fill="#dcc28e"/><rect x="101" y="57" width="4" height="2" fill="#dcc28e"/><rect x="84" y="70" width="18" height="10" fill="#fff0cb"/><rect x="91" y="73" width="4" height="7" fill="#3f6c61"/><rect x="81" y="70" width="24" height="3" fill="#3f6c61"/><rect x="84" y="67" width="18" height="3" fill="#dcc28e"/><rect x="88" y="64" width="10" height="3" fill="#dcc28e"/><rect x="80" y="68" width="4" height="2" fill="#dcc28e"/><rect x="102" y="68" width="4" height="2" fill="#dcc28e"/><rect x="83" y="81" width="21" height="10" fill="#fff0cb"/><rect x="91" y="84" width="4" height="7" fill="#3f6c61"/><rect x="80" y="81" width="27" height="3" fill="#3f6c61"/><rect x="83" y="78" width="21" height="3" fill="#dcc28e"/><rect x="87" y="75" width="13" height="3" fill="#dcc28e"/><rect x="92" y="72" width="3" height="3" fill="#dcc28e"/><rect x="79" y="79" width="4" height="2" fill="#dcc28e"/><rect x="104" y="79" width="4" height="2" fill="#dcc28e"/><rect x="14" y="93" width="99" height="4" fill="#b8b89a"/><g transform="translate(2 71) scale(0.5)"><rect x="8" y="15" width="3" height="18" fill="#927956"/><rect x="3" y="5" width="15" height="17" fill="#86a675"/><rect x="0" y="11" width="21" height="9" fill="#86a675"/><rect x="7" y="0" width="7" height="7" fill="#86a675"/><rect x="4" y="8" width="5" height="7" fill="#b6c68c"/></g></svg>
