<svg xmlns="http://www.w3.org/2000/svg" viewBox="0 0 128 116" shape-rendering="crispEdges" role="img" aria-labelledby="title"><title id="title">桂林 · 象鼻山</title><rect x="81" y="79" width="12" height="1" fill="#bfd0a4"/><rect x="60" y="80" width="35" height="1" fill="#bfd0a4"/><rect x="39" y="81" width="59" height="1" fill="#bfd0a4"/><rect x="18" y="82" width="83" height="1" fill="#bfd0a4"/><rect x="7" y="83" width="96" height="1" fill="#bfd0a4"/><rect x="7" y="84" width="99" height="1" fill="#bfd0a4"/><rect x="7" y="85" width="101" height="1" fill="#bfd0a4"/><rect x="7" y="86" width="104" height="1" fill="#bfd0a4"/><rect x="7" y="87" width="106" height="1" fill="#bfd0a4"/><rect x="6" y="88" width="110" height="1" fill="#bfd0a4"/><rect x="6" y="89" width="113" height="1" fill="#bfd0a4"/><rect x="6" y="90" width="115" height="1" fill="#bfd0a4"/><rect x="6" y="91" width="116" height="1" fill="#bfd0a4"/><rect x="6" y="92" width="114" height="1" fill="#bfd0a4"/><rect x="5" y="93" width="114" height="1" fill="#bfd0a4"/><rect x="5" y="94" width="113" height="1" fill="#bfd0a4"/><rect x="5" y="95" width="111" height="1" fill="#bfd0a4"/><rect x="5" y="96" width="110" height="1" fill="#bfd0a4"/><rect x="5" y="97" width="109" height="1" fill="#bfd0a4"/><rect x="5" y="98" width="107" height="1" fill="#bfd0a4"/><rect x="7" y="99" width="104" height="1" fill="#bfd0a4"/><rect x="9" y="100" width="101" height="1" fill="#bfd0a4"/><rect x="11" y="101" width="97" height="1" fill="#bfd0a4"/><rect x="13" y="102" width="94" height="1" fill="#bfd0a4"/><rect x="15" y="103" width="91" height="1" fill="#bfd0a4"/><rect x="17" y="104" width="87" height="1" fill="#bfd0a4"/><rect x="19" y="105" width="71" height="1" fill="#bfd0a4"/><rect x="21" y="106" width="42" height="1" fill="#bfd0a4"/><rect x="23" y="107" width="14" height="1" fill="#bfd0a4"/><rect x="120" y="92" width="2" height="1" fill="#849b7d"/><rect x="119" y="93" width="3" height="1" fill="#849b7d"/><rect x="118" y="94" width="4" height="1" fill="#849b7d"/><rect x="116" y="95" width="6" height="1" fill="#849b7d"/><rect x="115" y="96" width="7" height="1" fill="#849b7d"/><rect x="114" y="97" width="8" height="1" fill="#849b7d"/><rect x="4" y="98" width="1" height="1" fill="#849b7d"/><rect x="112" y="98" width="10" height="1" fill="#849b7d"/><rect x="4" y="99" width="3" height="1" fill="#849b7d"/><rect x="111" y="99" width="10" height="1" fill="#849b7d"/><rect x="4" y="100" width="5" height="1" fill="#849b7d"/><rect x="110" y="100" width="9" height="1" fill="#849b7d"/><rect x="4" y="101" width="7" height="1" fill="#849b7d"/><rect x="108" y="101" width="10" height="1" fill="#849b7d"/><rect x="4" y="102" width="9" height="1" fill="#849b7d"/><rect x="107" y="102" width="10" height="1" fill="#849b7d"/><rect x="4" y="103" width="11" height="1" fill="#849b7d"/><rect x="106" y="103" width="9" height="1" fill="#849b7d"/><rect x="4" y="104" width="13" height="1" fill="#849b7d"/><rect x="104" y="104" width="10" height="1" fill="#849b7d"/><rect x="6" y="105" width="13" height="1" fill="#849b7d"/><rect x="90" y="105" width="23" height="1" fill="#849b7d"/><rect x="8" y="106" width="13" height="1" fill="#849b7d"/><rect x="63" y="106" width="49" height="1" fill="#849b7d"/><rect x="10" y="107" width="13" height="1" fill="#849b7d"/><rect x="37" y="107" width="73" height="1" fill="#849b7d"/><rect x="12" y="108" width="97" height="1" fill="#849b7d"/><rect x="14" y="109" width="94" height="1" fill="#849b7d"/><rect x="16" y="110" width="90" height="1" fill="#849b7d"/><rect x="18" y="111" width="87" height="1" fill="#849b7d"/><rect x="20" y="112" width="64" height="1" fill="#849b7d"/><rect x="22" y="113" width="22" height="1" fill="#849b7d"/><rect x="76" y="82" width="14" height="1" fill="#d2dbb7"/><rect x="50" y="83" width="42" height="1" fill="#d2dbb7"/><rect x="24" y="84" width="71" height="1" fill="#d2dbb7"/><rect x="11" y="85" width="87" height="1" fill="#d2dbb7"/><rect x="11" y="86" width="89" height="1" fill="#d2dbb7"/><rect x="11" y="87" width="92" height="1" fill="#d2dbb7"/><rect x="11" y="88" width="94" height="1" fill="#d2dbb7"/><rect x="11" y="89" width="97" height="1" fill="#d2dbb7"/><rect x="10" y="90" width="101" height="1" fill="#d2dbb7"/><rect x="10" y="91" width="103" height="1" fill="#d2dbb7"/><rect x="10" y="92" width="104" height="1" fill="#d2dbb7"/><rect x="10" y="93" width="102" height="1" fill="#d2dbb7"/><rect x="10" y="94" width="101" height="1" fill="#d2dbb7"/><rect x="10" y="95" width="99" height="1" fill="#d2dbb7"/><rect x="11" y="96" width="96" height="1" fill="#d2dbb7"/><rect x="13" y="97" width="93" height="1" fill="#d2dbb7"/><rect x="15" y="98" width="89" height="1" fill="#d2dbb7"/><rect x="17" y="99" width="86" height="1" fill="#d2dbb7"/><rect x="20" y="100" width="81" height="1" fill="#d2dbb7"/><rect x="22" y="101" width="60" height="1" fill="#d2dbb7"/><rect x="24" y="102" width="20" height="1" fill="#d2dbb7"/><rect x="80" y="85" width="10" height="1" fill="#88c8c1"/><rect x="64" y="86" width="29" height="1" fill="#88c8c1"/><rect x="48" y="87" width="49" height="1" fill="#88c8c1"/><rect x="32" y="88" width="68" height="1" fill="#88c8c1"/><rect x="16" y="89" width="87" height="1" fill="#88c8c1"/><rect x="8" y="90" width="98" height="1" fill="#88c8c1"/><rect x="8" y="91" width="101" height="1" fill="#88c8c1"/><rect x="8" y="92" width="105" height="1" fill="#88c8c1"/><rect x="8" y="93" width="108" height="1" fill="#88c8c1"/><rect x="7" y="94" width="110" height="1" fill="#88c8c1"/><rect x="7" y="95" width="108" height="1" fill="#88c8c1"/><rect x="7" y="96" width="106" height="1" fill="#88c8c1"/><rect x="7" y="97" width="104" height="1" fill="#88c8c1"/><rect x="7" y="98" width="102" height="1" fill="#88c8c1"/><rect x="8" y="99" width="100" height="1" fill="#88c8c1"/><rect x="10" y="100" width="96" height="1" fill="#88c8c1"/><rect x="13" y="101" width="91" height="1" fill="#88c8c1"/><rect x="15" y="102" width="87" height="1" fill="#88c8c1"/><rect x="17" y="103" width="83" height="1" fill="#88c8c1"/><rect x="20" y="104" width="60" height="1" fill="#88c8c1"/><rect x="22" y="105" width="20" height="1" fill="#88c8c1"/><rect x="14" y="95" width="7" height="1" fill="#d7eee0"/><rect x="26" y="98" width="7" height="1" fill="#d7eee0"/><rect x="38" y="101" width="7" height="1" fill="#d7eee0"/><rect x="50" y="95" width="7" height="1" fill="#d7eee0"/><rect x="62" y="98" width="7" height="1" fill="#d7eee0"/><rect x="74" y="101" width="7" height="1" fill="#d7eee0"/><rect x="86" y="95" width="7" height="1" fill="#d7eee0"/><rect x="98" y="98" width="7" height="1" fill="#d7eee0"/><rect x="51" y="22" width="1" height="1" fill="#91ac88"/><rect x="51" y="23" width="2" height="1" fill="#91ac88"/><rect x="50" y="24" width="3" height="1" fill="#91ac88"/><rect x="50" y="25" width="4" height="1" fill="#91ac88"/><rect x="50" y="26" width="5" height="1" fill="#91ac88"/><rect x="49" y="27" width="6" height="1" fill="#91ac88"/><rect x="49" y="28" width="7" height="1" fill="#91ac88"/><rect x="48" y="29" width="9" height="1" fill="#91ac88"/><rect x="48" y="30" width="9" height="1" fill="#91ac88"/><rect x="48" y="31" width="10" height="1" fill="#91ac88"/><rect x="47" y="32" width="12" height="1" fill="#91ac88"/><rect x="47" y="33" width="12" height="1" fill="#91ac88"/><rect x="46" y="34" width="14" height="1" fill="#91ac88"/><rect x="46" y="35" width="15" height="1" fill="#91ac88"/><rect x="20" y="36" width="1" height="1" fill="#91ac88"/><rect x="46" y="36" width="15" height="1" fill="#91ac88"/><rect x="20" y="37" width="1" height="1" fill="#91ac88"/><rect x="45" y="37" width="16" height="1" fill="#91ac88"/><rect x="19" y="38" width="3" height="1" fill="#91ac88"/><rect x="45" y="38" width="16" height="1" fill="#91ac88"/><rect x="18" y="39" width="4" height="1" fill="#91ac88"/><rect x="44" y="39" width="17" height="1" fill="#91ac88"/><rect x="18" y="40" width="5" height="1" fill="#91ac88"/><rect x="44" y="40" width="17" height="1" fill="#91ac88"/><rect x="17" y="41" width="6" height="1" fill="#91ac88"/><rect x="44" y="41" width="17" height="1" fill="#91ac88"/><rect x="16" y="42" width="7" height="1" fill="#91ac88"/><rect x="43" y="42" width="19" height="1" fill="#91ac88"/><rect x="16" y="43" width="8" height="1" fill="#91ac88"/><rect x="43" y="43" width="19" height="1" fill="#91ac88"/><rect x="15" y="44" width="9" height="1" fill="#91ac88"/><rect x="42" y="44" width="20" height="1" fill="#91ac88"/><rect x="15" y="45" width="10" height="1" fill="#91ac88"/><rect x="42" y="45" width="20" height="1" fill="#91ac88"/><rect x="14" y="46" width="11" height="1" fill="#91ac88"/><rect x="42" y="46" width="20" height="1" fill="#91ac88"/><rect x="13" y="47" width="13" height="1" fill="#91ac88"/><rect x="41" y="47" width="21" height="1" fill="#91ac88"/><rect x="13" y="48" width="13" height="1" fill="#91ac88"/><rect x="41" y="48" width="21" height="1" fill="#91ac88"/><rect x="12" y="49" width="15" height="1" fill="#91ac88"/><rect x="40" y="49" width="23" height="1" fill="#91ac88"/><rect x="12" y="50" width="15" height="1" fill="#91ac88"/><rect x="40" y="50" width="23" height="1" fill="#91ac88"/><rect x="12" y="51" width="15" height="1" fill="#91ac88"/><rect x="40" y="51" width="23" height="1" fill="#91ac88"/><rect x="12" y="52" width="15" height="1" fill="#91ac88"/><rect x="39" y="52" width="24" height="1" fill="#91ac88"/><rect x="12" y="53" width="15" height="1" fill="#91ac88"/><rect x="39" y="53" width="24" height="1" fill="#91ac88"/><rect x="12" y="54" width="15" height="1" fill="#91ac88"/><rect x="39" y="54" width="24" height="1" fill="#91ac88"/><rect x="11" y="55" width="16" height="1" fill="#91ac88"/><rect x="38" y="55" width="25" height="1" fill="#91ac88"/><rect x="11" y="56" width="17" height="1" fill="#91ac88"/><rect x="38" y="56" width="26" height="1" fill="#91ac88"/><rect x="11" y="57" width="17" height="1" fill="#91ac88"/><rect x="38" y="57" width="26" height="1" fill="#91ac88"/><rect x="11" y="58" width="17" height="1" fill="#91ac88"/><rect x="37" y="58" width="27" height="1" fill="#91ac88"/><rect x="11" y="59" width="17" height="1" fill="#91ac88"/><rect x="37" y="59" width="27" height="1" fill="#91ac88"/><rect x="11" y="60" width="17" height="1" fill="#91ac88"/><rect x="36" y="60" width="28" height="1" fill="#91ac88"/><rect x="10" y="61" width="18" height="1" fill="#91ac88"/><rect x="36" y="61" width="28" height="1" fill="#91ac88"/><rect x="10" y="62" width="18" height="1" fill="#91ac88"/><rect x="36" y="62" width="29" height="1" fill="#91ac88"/><rect x="10" y="63" width="19" height="1" fill="#91ac88"/><rect x="35" y="63" width="30" height="1" fill="#91ac88"/><rect x="10" y="64" width="19" height="1" fill="#91ac88"/><rect x="35" y="64" width="30" height="1" fill="#91ac88"/><rect x="10" y="65" width="19" height="1" fill="#91ac88"/><rect x="35" y="65" width="30" height="1" fill="#91ac88"/><rect x="9" y="66" width="20" height="1" fill="#91ac88"/><rect x="34" y="66" width="31" height="1" fill="#91ac88"/><rect x="9" y="67" width="20" height="1" fill="#91ac88"/><rect x="34" y="67" width="31" height="1" fill="#91ac88"/><rect x="9" y="68" width="20" height="1" fill="#91ac88"/><rect x="34" y="68" width="31" height="1" fill="#91ac88"/><rect x="9" y="69" width="20" height="1" fill="#91ac88"/><rect x="33" y="69" width="33" height="1" fill="#91ac88"/><rect x="9" y="70" width="21" height="1" fill="#91ac88"/><rect x="33" y="70" width="33" height="1" fill="#91ac88"/><rect x="9" y="71" width="21" height="1" fill="#91ac88"/><rect x="32" y="71" width="34" height="1" fill="#91ac88"/><rect x="8" y="72" width="22" height="1" fill="#91ac88"/><rect x="32" y="72" width="34" height="1" fill="#91ac88"/><rect x="8" y="73" width="22" height="1" fill="#91ac88"/><rect x="32" y="73" width="34" height="1" fill="#91ac88"/><rect x="8" y="74" width="22" height="1" fill="#91ac88"/><rect x="31" y="74" width="35" height="1" fill="#91ac88"/><rect x="8" y="75" width="22" height="1" fill="#91ac88"/><rect x="31" y="75" width="35" height="1" fill="#91ac88"/><rect x="8" y="76" width="22" height="1" fill="#91ac88"/><rect x="31" y="76" width="36" height="1" fill="#91ac88"/><rect x="8" y="77" width="59" height="1" fill="#91ac88"/><rect x="7" y="78" width="60" height="1" fill="#91ac88"/><rect x="7" y="79" width="60" height="1" fill="#91ac88"/><rect x="7" y="80" width="60" height="1" fill="#91ac88"/><rect x="7" y="81" width="60" height="1" fill="#91ac88"/><rect x="7" y="82" width="60" height="1" fill="#91ac88"/><rect x="7" y="83" width="30" height="1" fill="#91ac88"/><rect x="79" y="42" width="4" height="1" fill="#739982"/><rect x="78" y="43" width="13" height="1" fill="#739982"/><rect x="77" y="44" width="18" height="1" fill="#739982"/><rect x="75" y="45" width="21" height="1" fill="#739982"/><rect x="74" y="46" width="23" height="1" fill="#739982"/><rect x="73" y="47" width="25" height="1" fill="#739982"/><rect x="72" y="48" width="27" height="1" fill="#739982"/><rect x="71" y="49" width="29" height="1" fill="#739982"/><rect x="69" y="50" width="32" height="1" fill="#739982"/><rect x="68" y="51" width="34" height="1" fill="#739982"/><rect x="67" y="52" width="36" height="1" fill="#739982"/><rect x="66" y="53" width="38" height="1" fill="#739982"/><rect x="65" y="54" width="40" height="1" fill="#739982"/><rect x="63" y="55" width="43" height="1" fill="#739982"/><rect x="62" y="56" width="44" height="1" fill="#739982"/><rect x="61" y="57" width="45" height="1" fill="#739982"/><rect x="60" y="58" width="46" height="1" fill="#739982"/><rect x="60" y="59" width="46" height="1" fill="#739982"/><rect x="60" y="60" width="46" height="1" fill="#739982"/><rect x="60" y="61" width="46" height="1" fill="#739982"/><rect x="59" y="62" width="47" height="1" fill="#739982"/><rect x="59" y="63" width="48" height="1" fill="#739982"/><rect x="59" y="64" width="48" height="1" fill="#739982"/><rect x="59" y="65" width="48" height="1" fill="#739982"/><rect x="58" y="66" width="49" height="1" fill="#739982"/><rect x="58" y="67" width="49" height="1" fill="#739982"/><rect x="58" y="68" width="49" height="1" fill="#739982"/><rect x="58" y="69" width="49" height="1" fill="#739982"/><rect x="57" y="70" width="50" height="1" fill="#739982"/><rect x="57" y="71" width="51" height="1" fill="#739982"/><rect x="57" y="72" width="51" height="1" fill="#739982"/><rect x="57" y="73" width="51" height="1" fill="#739982"/><rect x="57" y="74" width="51" height="1" fill="#739982"/><rect x="56" y="75" width="52" height="1" fill="#739982"/><rect x="56" y="76" width="52" height="1" fill="#739982"/><rect x="56" y="77" width="52" height="1" fill="#739982"/><rect x="56" y="78" width="53" height="1" fill="#739982"/><rect x="55" y="79" width="54" height="1" fill="#739982"/><rect x="55" y="80" width="54" height="1" fill="#739982"/><rect x="55" y="81" width="54" height="1" fill="#739982"/><rect x="55" y="82" width="54" height="1" fill="#739982"/><rect x="54" y="83" width="55" height="1" fill="#739982"/><rect x="54" y="84" width="55" height="1" fill="#739982"/><rect x="54" y="85" width="55" height="1" fill="#739982"/><rect x="54" y="86" width="27" height="1" fill="#739982"/><rect x="83" y="74" width="14" height="17" fill="#88c8c1"/><rect x="90" y="67" width="1" height="1" fill="#88c8c1"/><rect x="87" y="68" width="7" height="1" fill="#88c8c1"/><rect x="86" y="69" width="9" height="1" fill="#88c8c1"/><rect x="85" y="70" width="11" height="1" fill="#88c8c1"/><rect x="84" y="71" width="13" height="1" fill="#88c8c1"/><rect x="84" y="72" width="13" height="1" fill="#88c8c1"/><rect x="84" y="73" width="13" height="1" fill="#88c8c1"/><rect x="83" y="74" width="15" height="1" fill="#88c8c1"/><rect x="84" y="75" width="13" height="1" fill="#88c8c1"/><rect x="84" y="76" width="13" height="1" fill="#88c8c1"/><rect x="84" y="77" width="13" height="1" fill="#88c8c1"/><rect x="85" y="78" width="11" height="1" fill="#88c8c1"/><rect x="86" y="79" width="9" height="1" fill="#88c8c1"/><rect x="87" y="80" width="7" height="1" fill="#88c8c1"/><rect x="90" y="81" width="1" height="1" fill="#88c8c1"/><rect x="87" y="91" width="24" height="4" fill="#dcc28e"/><rect x="20" y="99" width="23" height="1" fill="#b45f4f"/><rect x="21" y="100" width="21" height="1" fill="#b45f4f"/><rect x="23" y="101" width="17" height="1" fill="#b45f4f"/><rect x="24" y="102" width="15" height="1" fill="#b45f4f"/><rect x="30" y="87" width="3" height="4" fill="#c3a77d"/><rect x="29" y="91" width="5" height="6" fill="#b45f4f"/><rect x="29" y="97" width="2" height="3" fill="#4b5547"/><rect x="32" y="97" width="2" height="3" fill="#4b5547"/></svg>
