<svg xmlns="http://www.w3.org/2000/svg" viewBox="0 0 128 116" shape-rendering="crispEdges" role="img" aria-labelledby="title"><title id="title">哈尔滨 · 圣索菲亚教堂</title><rect x="81" y="79" width="12" height="1" fill="#bfd0a4"/><rect x="60" y="80" width="35" height="1" fill="#bfd0a4"/><rect x="39" y="81" width="59" height="1" fill="#bfd0a4"/><rect x="18" y="82" width="83" height="1" fill="#bfd0a4"/><rect x="7" y="83" width="96" height="1" fill="#bfd0a4"/><rect x="7" y="84" width="99" height="1" fill="#bfd0a4"/><rect x="7" y="85" width="101" height="1" fill="#bfd0a4"/><rect x="7" y="86" width="104" height="1" fill="#bfd0a4"/><rect x="7" y="87" width="106" height="1" fill="#bfd0a4"/><rect x="6" y="88" width="110" height="1" fill="#bfd0a4"/><rect x="6" y="89" width="113" height="1" fill="#bfd0a4"/><rect x="6" y="90" width="115" height="1" fill="#bfd0a4"/><rect x="6" y="91" width="116" height="1" fill="#bfd0a4"/><rect x="6" y="92" width="114" height="1" fill="#bfd0a4"/><rect x="5" y="93" width="114" height="1" fill="#bfd0a4"/><rect x="5" y="94" width="113" height="1" fill="#bfd0a4"/><rect x="5" y="95" width="111" height="1" fill="#bfd0a4"/><rect x="5" y="96" width="110" height="1" fill="#bfd0a4"/><rect x="5" y="97" width="109" height="1" fill="#bfd0a4"/><rect x="5" y="98" width="107" height="1" fill="#bfd0a4"/><rect x="7" y="99" width="104" height="1" fill="#bfd0a4"/><rect x="9" y="100" width="101" height="1" fill="#bfd0a4"/><rect x="11" y="101" width="97" height="1" fill="#bfd0a4"/><rect x="13" y="102" width="94" height="1" fill="#bfd0a4"/><rect x="15" y="103" width="91" height="1" fill="#bfd0a4"/><rect x="17" y="104" width="87" height="1" fill="#bfd0a4"/><rect x="19" y="105" width="71" height="1" fill="#bfd0a4"/><rect x="21" y="106" width="42" height="1" fill="#bfd0a4"/><rect x="23" y="107" width="14" height="1" fill="#bfd0a4"/><rect x="120" y="92" width="2" height="1" fill="#849b7d"/><rect x="119" y="93" width="3" height="1" fill="#849b7d"/><rect x="118" y="94" width="4" height="1" fill="#849b7d"/><rect x="116" y="95" width="6" height="1" fill="#849b7d"/><rect x="115" y="96" width="7" height="1" fill="#849b7d"/><rect x="114" y="97" width="8" height="1" fill="#849b7d"/><rect x="4" y="98" width="1" height="1" fill="#849b7d"/><rect x="112" y="98" width="10" height="1" fill="#849b7d"/><rect x="4" y="99" width="3" height="1" fill="#849b7d"/><rect x="111" y="99" width="10" height="1" fill="#849b7d"/><rect x="4" y="100" width="5" height="1" fill="#849b7d"/><rect x="110" y="100" width="9" height="1" fill="#849b7d"/><rect x="4" y="101" width="7" height="1" fill="#849b7d"/><rect x="108" y="101" width="10" height="1" fill="#849b7d"/><rect x="4" y="102" width="9" height="1" fill="#849b7d"/><rect x="107" y="102" width="10" height="1" fill="#849b7d"/><rect x="4" y="103" width="11" height="1" fill="#849b7d"/><rect x="106" y="103" width="9" height="1" fill="#849b7d"/><rect x="4" y="104" width="13" height="1" fill="#849b7d"/><rect x="104" y="104" width="10" height="1" fill="#849b7d"/><rect x="6" y="105" width="13" height="1" fill="#849b7d"/><rect x="90" y="105" width="23" height="1" fill="#849b7d"/><rect x="8" y="106" width="13" height="1" fill="#849b7d"/><rect x="63" y="106" width="49" height="1" fill="#849b7d"/><rect x="10" y="107" width="13" height="1" fill="#849b7d"/><rect x="37" y="107" width="73" height="1" fill="#849b7d"/><rect x="12" y="108" width="97" height="1" fill="#849b7d"/><rect x="14" y="109" width="94" height="1" fill="#849b7d"/><rect x="16" y="110" width="90" height="1" fill="#849b7d"/><rect x="18" y="111" width="87" height="1" fill="#849b7d"/><rect x="20" y="112" width="64" height="1" fill="#849b7d"/><rect x="22" y="113" width="22" height="1" fill="#849b7d"/><rect x="76" y="82" width="14" height="1" fill="#d2dbb7"/><rect x="50" y="83" width="42" height="1" fill="#d2dbb7"/><rect x="24" y="84" width="71" height="1" fill="#d2dbb7"/><rect x="11" y="85" width="87" height="1" fill="#d2dbb7"/><rect x="11" y="86" width="89" height="1" fill="#d2dbb7"/><rect x="11" y="87" width="92" height="1" fill="#d2dbb7"/><rect x="11" y="88" width="94" height="1" fill="#d2dbb7"/><rect x="11" y="89" width="97" height="1" fill="#d2dbb7"/><rect x="10" y="90" width="101" height="1" fill="#d2dbb7"/><rect x="10" y="91" width="103" height="1" fill="#d2dbb7"/><rect x="10" y="92" width="104" height="1" fill="#d2dbb7"/><rect x="10" y="93" width="102" height="1" fill="#d2dbb7"/><rect x="10" y="94" width="101" height="1" fill="#d2dbb7"/><rect x="10" y="95" width="99" height="1" fill="#d2dbb7"/><rect x="11" y="96" width="96" height="1" fill="#d2dbb7"/><rect x="13" y="97" width="93" height="1" fill="#d2dbb7"/><rect x="15" y="98" width="89" height="1" fill="#d2dbb7"/><rect x="17" y="99" width="86" height="1" fill="#d2dbb7"/><rect x="20" y="100" width="81" height="1" fill="#d2dbb7"/><rect x="22" y="101" width="60" height="1" fill="#d2dbb7"/><rect x="24" y="102" width="20" height="1" fill="#d2dbb7"/><rect x="36" y="55" width="57" height="34" fill="#b45f4f"/><rect x="49" y="40" width="31" height="19" fill="#b45f4f"/><rect x="65" y="17" width="1" height="1" fill="#54857a"/><rect x="59" y="18" width="13" height="1" fill="#54857a"/><rect x="57" y="19" width="17" height="1" fill="#54857a"/><rect x="55" y="20" width="21" height="1" fill="#54857a"/><rect x="53" y="21" width="25" height="1" fill="#54857a"/><rect x="52" y="22" width="27" height="1" fill="#54857a"/><rect x="51" y="23" width="29" height="1" fill="#54857a"/><rect x="50" y="24" width="31" height="1" fill="#54857a"/><rect x="49" y="25" width="33" height="1" fill="#54857a"/><rect x="48" y="26" width="35" height="1" fill="#54857a"/><rect x="48" y="27" width="35" height="1" fill="#54857a"/><rect x="47" y="28" width="37" height="1" fill="#54857a"/><rect x="47" y="29" width="37" height="1" fill="#54857a"/><rect x="46" y="30" width="39" height="1" fill="#54857a"/><rect x="46" y="31" width="39" height="1" fill="#54857a"/><rect x="46" y="32" width="39" height="1" fill="#54857a"/><rect x="45" y="33" width="41" height="1" fill="#54857a"/><rect x="45" y="34" width="41" height="1" fill="#54857a"/><rect x="45" y="35" width="41" height="1" fill="#54857a"/><rect x="45" y="36" width="41" height="1" fill="#54857a"/><rect x="45" y="37" width="41" height="1" fill="#54857a"/><rect x="45" y="38" width="41" height="1" fill="#54857a"/><rect x="45" y="39" width="41" height="1" fill="#54857a"/><rect x="45" y="40" width="41" height="1" fill="#54857a"/><rect x="45" y="41" width="41" height="1" fill="#54857a"/><rect x="46" y="42" width="39" height="1" fill="#54857a"/><rect x="46" y="43" width="39" height="1" fill="#54857a"/><rect x="46" y="44" width="39" height="1" fill="#54857a"/><rect x="47" y="45" width="37" height="1" fill="#54857a"/><rect x="47" y="46" width="37" height="1" fill="#54857a"/><rect x="48" y="47" width="35" height="1" fill="#54857a"/><rect x="48" y="48" width="35" height="1" fill="#54857a"/><rect x="49" y="49" width="33" height="1" fill="#54857a"/><rect x="50" y="50" width="31" height="1" fill="#54857a"/><rect x="51" y="51" width="29" height="1" fill="#54857a"/><rect x="52" y="52" width="27" height="1" fill="#54857a"/><rect x="53" y="53" width="25" height="1" fill="#54857a"/><rect x="55" y="54" width="21" height="1" fill="#54857a"/><rect x="57" y="55" width="17" height="1" fill="#54857a"/><rect x="59" y="56" width="13" height="1" fill="#54857a"/><rect x="65" y="57" width="1" height="1" fill="#54857a"/><rect x="44" y="37" width="41" height="3" fill="#54857a"/><rect x="64" y="12" width="2" height="7" fill="#d2a14f"/><rect x="63" y="7" width="2" height="15" fill="#d2a14f"/><rect x="58" y="12" width="12" height="2" fill="#d2a14f"/><rect x="20" y="61" width="20" height="28" fill="#b45f4f"/><rect x="30" y="44" width="1" height="1" fill="#54857a"/><rect x="27" y="45" width="7" height="1" fill="#54857a"/><rect x="25" y="46" width="11" height="1" fill="#54857a"/><rect x="24" y="47" width="13" height="1" fill="#54857a"/><rect x="23" y="48" width="15" height="1" fill="#54857a"/><rect x="23" y="49" width="15" height="1" fill="#54857a"/><rect x="22" y="50" width="17" height="1" fill="#54857a"/><rect x="22" y="51" width="17" height="1" fill="#54857a"/><rect x="21" y="52" width="19" height="1" fill="#54857a"/><rect x="21" y="53" width="19" height="1" fill="#54857a"/><rect x="21" y="54" width="19" height="1" fill="#54857a"/><rect x="21" y="55" width="19" height="1" fill="#54857a"/><rect x="21" y="56" width="19" height="1" fill="#54857a"/><rect x="20" y="57" width="21" height="1" fill="#54857a"/><rect x="21" y="58" width="19" height="1" fill="#54857a"/><rect x="21" y="59" width="19" height="1" fill="#54857a"/><rect x="21" y="60" width="19" height="1" fill="#54857a"/><rect x="21" y="61" width="19" height="1" fill="#54857a"/><rect x="21" y="62" width="19" height="1" fill="#54857a"/><rect x="22" y="63" width="17" height="1" fill="#54857a"/><rect x="22" y="64" width="17" height="1" fill="#54857a"/><rect x="23" y="65" width="15" height="1" fill="#54857a"/><rect x="23" y="66" width="15" height="1" fill="#54857a"/><rect x="24" y="67" width="13" height="1" fill="#54857a"/><rect x="25" y="68" width="11" height="1" fill="#54857a"/><rect x="27" y="69" width="7" height="1" fill="#54857a"/><rect x="30" y="70" width="1" height="1" fill="#54857a"/><rect x="20" y="57" width="20" height="3" fill="#54857a"/><rect x="29" y="39" width="2" height="7" fill="#d2a14f"/><rect x="97" y="56" width="15" height="33" fill="#b45f4f"/><rect x="105" y="42" width="1" height="1" fill="#54857a"/><rect x="102" y="43" width="7" height="1" fill="#54857a"/><rect x="100" y="44" width="11" height="1" fill="#54857a"/><rect x="99" y="45" width="13" height="1" fill="#54857a"/><rect x="98" y="46" width="15" height="1" fill="#54857a"/><rect x="98" y="47" width="15" height="1" fill="#54857a"/><rect x="97" y="48" width="17" height="1" fill="#54857a"/><rect x="97" y="49" width="17" height="1" fill="#54857a"/><rect x="97" y="50" width="17" height="1" fill="#54857a"/><rect x="96" y="51" width="19" height="1" fill="#54857a"/><rect x="96" y="52" width="19" height="1" fill="#54857a"/><rect x="96" y="53" width="19" height="1" fill="#54857a"/><rect x="96" y="54" width="19" height="1" fill="#54857a"/><rect x="96" y="55" width="19" height="1" fill="#54857a"/><rect x="96" y="56" width="19" height="1" fill="#54857a"/><rect x="96" y="57" width="19" height="1" fill="#54857a"/><rect x="97" y="58" width="17" height="1" fill="#54857a"/><rect x="97" y="59" width="17" height="1" fill="#54857a"/><rect x="97" y="60" width="17" height="1" fill="#54857a"/><rect x="98" y="61" width="15" height="1" fill="#54857a"/><rect x="98" y="62" width="15" height="1" fill="#54857a"/><rect x="99" y="63" width="13" height="1" fill="#54857a"/><rect x="100" y="64" width="11" height="1" fill="#54857a"/><rect x="102" y="65" width="7" height="1" fill="#54857a"/><rect x="105" y="66" width="1" height="1" fill="#54857a"/><rect x="95" y="54" width="19" height="3" fill="#54857a"/><rect x="104" y="37" width="2" height="7" fill="#d2a14f"/><rect x="57" y="70" width="16" height="20" fill="#3f6c61"/><rect x="65" y="62" width="1" height="1" fill="#3f6c61"/><rect x="62" y="63" width="7" height="1" fill="#3f6c61"/><rect x="60" y="64" width="11" height="1" fill="#3f6c61"/><rect x="59" y="65" width="13" height="1" fill="#3f6c61"/><rect x="59" y="66" width="13" height="1" fill="#3f6c61"/><rect x="58" y="67" width="15" height="1" fill="#3f6c61"/><rect x="58" y="68" width="15" height="1" fill="#3f6c61"/><rect x="58" y="69" width="15" height="1" fill="#3f6c61"/><rect x="57" y="70" width="17" height="1" fill="#3f6c61"/><rect x="58" y="71" width="15" height="1" fill="#3f6c61"/><rect x="58" y="72" width="15" height="1" fill="#3f6c61"/><rect x="58" y="73" width="15" height="1" fill="#3f6c61"/><rect x="59" y="74" width="13" height="1" fill="#3f6c61"/><rect x="59" y="75" width="13" height="1" fill="#3f6c61"/><rect x="60" y="76" width="11" height="1" fill="#3f6c61"/><rect x="62" y="77" width="7" height="1" fill="#3f6c61"/><rect x="65" y="78" width="1" height="1" fill="#3f6c61"/><rect x="41" y="59" width="3" height="4" fill="#fff0cb"/><rect x="48" y="59" width="3" height="4" fill="#fff0cb"/><rect x="41" y="66" width="3" height="4" fill="#fff0cb"/><rect x="48" y="66" width="3" height="4" fill="#fff0cb"/><rect x="41" y="73" width="3" height="4" fill="#fff0cb"/><rect x="48" y="73" width="3" height="4" fill="#fff0cb"/><rect x="41" y="80" width="3" height="4" fill="#fff0cb"/><rect x="48" y="80" width="3" height="4" fill="#fff0cb"/><rect x="81" y="59" width="3" height="4" fill="#fff0cb"/><rect x="88" y="59" width="3" height="4" fill="#fff0cb"/><rect x="81" y="66" width="3" height="4" fill="#fff0cb"/><rect x="88" y="66" width="3" height="4" fill="#fff0cb"/><rect x="81" y="73" width="3" height="4" fill="#fff0cb"/><rect x="88" y="73" width="3" height="4" fill="#fff0cb"/><rect x="81" y="80" width="3" height="4" fill="#fff0cb"/><rect x="88" y="80" width="3" height="4" fill="#fff0cb"/><rect x="26" y="89" width="76" height="5" fill="#b8b89a"/></svg>
