<svg xmlns="http://www.w3.org/2000/svg" viewBox="0 0 128 116" shape-rendering="crispEdges" role="img" aria-labelledby="title"><title id="title">拉萨 · 布达拉宫</title><rect x="81" y="79" width="12" height="1" fill="#bfd0a4"/><rect x="60" y="80" width="35" height="1" fill="#bfd0a4"/><rect x="39" y="81" width="59" height="1" fill="#bfd0a4"/><rect x="18" y="82" width="83" height="1" fill="#bfd0a4"/><rect x="7" y="83" width="96" height="1" fill="#bfd0a4"/><rect x="7" y="84" width="99" height="1" fill="#bfd0a4"/><rect x="7" y="85" width="101" height="1" fill="#bfd0a4"/><rect x="7" y="86" width="104" height="1" fill="#bfd0a4"/><rect x="7" y="87" width="106" height="1" fill="#bfd0a4"/><rect x="6" y="88" width="110" height="1" fill="#bfd0a4"/><rect x="6" y="89" width="113" height="1" fill="#bfd0a4"/><rect x="6" y="90" width="115" height="1" fill="#bfd0a4"/><rect x="6" y="91" width="116" height="1" fill="#bfd0a4"/><rect x="6" y="92" width="114" height="1" fill="#bfd0a4"/><rect x="5" y="93" width="114" height="1" fill="#bfd0a4"/><rect x="5" y="94" width="113" height="1" fill="#bfd0a4"/><rect x="5" y="95" width="111" height="1" fill="#bfd0a4"/><rect x="5" y="96" width="110" height="1" fill="#bfd0a4"/><rect x="5" y="97" width="109" height="1" fill="#bfd0a4"/><rect x="5" y="98" width="107" height="1" fill="#bfd0a4"/><rect x="7" y="99" width="104" height="1" fill="#bfd0a4"/><rect x="9" y="100" width="101" height="1" fill="#bfd0a4"/><rect x="11" y="101" width="97" height="1" fill="#bfd0a4"/><rect x="13" y="102" width="94" height="1" fill="#bfd0a4"/><rect x="15" y="103" width="91" height="1" fill="#bfd0a4"/><rect x="17" y="104" width="87" height="1" fill="#bfd0a4"/><rect x="19" y="105" width="71" height="1" fill="#bfd0a4"/><rect x="21" y="106" width="42" height="1" fill="#bfd0a4"/><rect x="23" y="107" width="14" height="1" fill="#bfd0a4"/><rect x="120" y="92" width="2" height="1" fill="#849b7d"/><rect x="119" y="93" width="3" height="1" fill="#849b7d"/><rect x="118" y="94" width="4" height="1" fill="#849b7d"/><rect x="116" y="95" width="6" height="1" fill="#849b7d"/><rect x="115" y="96" width="7" height="1" fill="#849b7d"/><rect x="114" y="97" width="8" height="1" fill="#849b7d"/><rect x="4" y="98" width="1" height="1" fill="#849b7d"/><rect x="112" y="98" width="10" height="1" fill="#849b7d"/><rect x="4" y="99" width="3" height="1" fill="#849b7d"/><rect x="111" y="99" width="10" height="1" fill="#849b7d"/><rect x="4" y="100" width="5" height="1" fill="#849b7d"/><rect x="110" y="100" width="9" height="1" fill="#849b7d"/><rect x="4" y="101" width="7" height="1" fill="#849b7d"/><rect x="108" y="101" width="10" height="1" fill="#849b7d"/><rect x="4" y="102" width="9" height="1" fill="#849b7d"/><rect x="107" y="102" width="10" height="1" fill="#849b7d"/><rect x="4" y="103" width="11" height="1" fill="#849b7d"/><rect x="106" y="103" width="9" height="1" fill="#849b7d"/><rect x="4" y="104" width="13" height="1" fill="#849b7d"/><rect x="104" y="104" width="10" height="1" fill="#849b7d"/><rect x="6" y="105" width="13" height="1" fill="#849b7d"/><rect x="90" y="105" width="23" height="1" fill="#849b7d"/><rect x="8" y="106" width="13" height="1" fill="#849b7d"/><rect x="63" y="106" width="49" height="1" fill="#849b7d"/><rect x="10" y="107" width="13" height="1" fill="#849b7d"/><rect x="37" y="107" width="73" height="1" fill="#849b7d"/><rect x="12" y="108" width="97" height="1" fill="#849b7d"/><rect x="14" y="109" width="94" height="1" fill="#849b7d"/><rect x="16" y="110" width="90" height="1" fill="#849b7d"/><rect x="18" y="111" width="87" height="1" fill="#849b7d"/><rect x="20" y="112" width="64" height="1" fill="#849b7d"/><rect x="22" y="113" width="22" height="1" fill="#849b7d"/><rect x="76" y="82" width="14" height="1" fill="#d2dbb7"/><rect x="50" y="83" width="42" height="1" fill="#d2dbb7"/><rect x="24" y="84" width="71" height="1" fill="#d2dbb7"/><rect x="11" y="85" width="87" height="1" fill="#d2dbb7"/><rect x="11" y="86" width="89" height="1" fill="#d2dbb7"/><rect x="11" y="87" width="92" height="1" fill="#d2dbb7"/><rect x="11" y="88" width="94" height="1" fill="#d2dbb7"/><rect x="11" y="89" width="97" height="1" fill="#d2dbb7"/><rect x="10" y="90" width="101" height="1" fill="#d2dbb7"/><rect x="10" y="91" width="103" height="1" fill="#d2dbb7"/><rect x="10" y="92" width="104" height="1" fill="#d2dbb7"/><rect x="10" y="93" width="102" height="1" fill="#d2dbb7"/><rect x="10" y="94" width="101" height="1" fill="#d2dbb7"/><rect x="10" y="95" width="99" height="1" fill="#d2dbb7"/><rect x="11" y="96" width="96" height="1" fill="#d2dbb7"/><rect x="13" y="97" width="93" height="1" fill="#d2dbb7"/><rect x="15" y="98" width="89" height="1" fill="#d2dbb7"/><rect x="17" y="99" width="86" height="1" fill="#d2dbb7"/><rect x="20" y="100" width="81" height="1" fill="#d2dbb7"/><rect x="22" y="101" width="60" height="1" fill="#d2dbb7"/><rect x="24" y="102" width="20" height="1" fill="#d2dbb7"/><rect x="61" y="44" width="3" height="1" fill="#ac997b"/><rect x="59" y="45" width="7" height="1" fill="#ac997b"/><rect x="57" y="46" width="11" height="1" fill="#ac997b"/><rect x="55" y="47" width="16" height="1" fill="#ac997b"/><rect x="53" y="48" width="20" height="1" fill="#ac997b"/><rect x="51" y="49" width="24" height="1" fill="#ac997b"/><rect x="49" y="50" width="29" height="1" fill="#ac997b"/><rect x="47" y="51" width="33" height="1" fill="#ac997b"/><rect x="45" y="52" width="38" height="1" fill="#ac997b"/><rect x="43" y="53" width="42" height="1" fill="#ac997b"/><rect x="42" y="54" width="45" height="1" fill="#ac997b"/><rect x="41" y="55" width="48" height="1" fill="#ac997b"/><rect x="40" y="56" width="50" height="1" fill="#ac997b"/><rect x="39" y="57" width="51" height="1" fill="#ac997b"/><rect x="38" y="58" width="53" height="1" fill="#ac997b"/><rect x="37" y="59" width="55" height="1" fill="#ac997b"/><rect x="36" y="60" width="57" height="1" fill="#ac997b"/><rect x="35" y="61" width="58" height="1" fill="#ac997b"/><rect x="33" y="62" width="61" height="1" fill="#ac997b"/><rect x="32" y="63" width="63" height="1" fill="#ac997b"/><rect x="31" y="64" width="65" height="1" fill="#ac997b"/><rect x="30" y="65" width="66" height="1" fill="#ac997b"/><rect x="29" y="66" width="68" height="1" fill="#ac997b"/><rect x="28" y="67" width="70" height="1" fill="#ac997b"/><rect x="27" y="68" width="72" height="1" fill="#ac997b"/><rect x="26" y="69" width="74" height="1" fill="#ac997b"/><rect x="25" y="70" width="75" height="1" fill="#ac997b"/><rect x="23" y="71" width="78" height="1" fill="#ac997b"/><rect x="22" y="72" width="80" height="1" fill="#ac997b"/><rect x="21" y="73" width="82" height="1" fill="#ac997b"/><rect x="19" y="74" width="84" height="1" fill="#ac997b"/><rect x="18" y="75" width="86" height="1" fill="#ac997b"/><rect x="17" y="76" width="88" height="1" fill="#ac997b"/><rect x="15" y="77" width="91" height="1" fill="#ac997b"/><rect x="14" y="78" width="93" height="1" fill="#ac997b"/><rect x="13" y="79" width="95" height="1" fill="#ac997b"/><rect x="11" y="80" width="98" height="1" fill="#ac997b"/><rect x="10" y="81" width="100" height="1" fill="#ac997b"/><rect x="10" y="82" width="101" height="1" fill="#ac997b"/><rect x="9" y="83" width="103" height="1" fill="#ac997b"/><rect x="9" y="84" width="104" height="1" fill="#ac997b"/><rect x="9" y="85" width="106" height="1" fill="#ac997b"/><rect x="8" y="86" width="108" height="1" fill="#ac997b"/><rect x="8" y="87" width="109" height="1" fill="#ac997b"/><rect x="7" y="88" width="111" height="1" fill="#ac997b"/><rect x="7" y="89" width="112" height="1" fill="#ac997b"/><rect x="6" y="90" width="114" height="1" fill="#ac997b"/><rect x="6" y="91" width="115" height="1" fill="#ac997b"/><rect x="6" y="92" width="116" height="1" fill="#ac997b"/><rect x="5" y="93" width="118" height="1" fill="#ac997b"/><rect x="5" y="94" width="59" height="1" fill="#ac997b"/><rect x="51" y="42" width="32" height="1" fill="#fff0cb"/><rect x="51" y="43" width="32" height="1" fill="#fff0cb"/><rect x="51" y="44" width="32" height="1" fill="#fff0cb"/><rect x="51" y="45" width="32" height="1" fill="#fff0cb"/><rect x="51" y="46" width="32" height="1" fill="#fff0cb"/><rect x="51" y="47" width="32" height="1" fill="#fff0cb"/><rect x="51" y="48" width="32" height="1" fill="#fff0cb"/><rect x="36" y="49" width="47" height="1" fill="#fff0cb"/><rect x="36" y="50" width="47" height="1" fill="#fff0cb"/><rect x="36" y="51" width="47" height="1" fill="#fff0cb"/><rect x="36" y="52" width="66" height="1" fill="#fff0cb"/><rect x="36" y="53" width="66" height="1" fill="#fff0cb"/><rect x="36" y="54" width="66" height="1" fill="#fff0cb"/><rect x="36" y="55" width="66" height="1" fill="#fff0cb"/><rect x="36" y="56" width="66" height="1" fill="#fff0cb"/><rect x="36" y="57" width="66" height="1" fill="#fff0cb"/><rect x="36" y="58" width="66" height="1" fill="#fff0cb"/><rect x="36" y="59" width="67" height="1" fill="#fff0cb"/><rect x="36" y="60" width="67" height="1" fill="#fff0cb"/><rect x="36" y="61" width="67" height="1" fill="#fff0cb"/><rect x="36" y="62" width="67" height="1" fill="#fff0cb"/><rect x="19" y="63" width="84" height="1" fill="#fff0cb"/><rect x="19" y="64" width="84" height="1" fill="#fff0cb"/><rect x="19" y="65" width="84" height="1" fill="#fff0cb"/><rect x="19" y="66" width="85" height="1" fill="#fff0cb"/><rect x="19" y="67" width="85" height="1" fill="#fff0cb"/><rect x="19" y="68" width="85" height="1" fill="#fff0cb"/><rect x="19" y="69" width="85" height="1" fill="#fff0cb"/><rect x="19" y="70" width="85" height="1" fill="#fff0cb"/><rect x="18" y="71" width="86" height="1" fill="#fff0cb"/><rect x="18" y="72" width="87" height="1" fill="#fff0cb"/><rect x="18" y="73" width="87" height="1" fill="#fff0cb"/><rect x="18" y="74" width="87" height="1" fill="#fff0cb"/><rect x="18" y="75" width="87" height="1" fill="#fff0cb"/><rect x="18" y="76" width="87" height="1" fill="#fff0cb"/><rect x="18" y="77" width="87" height="1" fill="#fff0cb"/><rect x="18" y="78" width="87" height="1" fill="#fff0cb"/><rect x="17" y="79" width="89" height="1" fill="#fff0cb"/><rect x="17" y="80" width="89" height="1" fill="#fff0cb"/><rect x="17" y="81" width="89" height="1" fill="#fff0cb"/><rect x="17" y="82" width="89" height="1" fill="#fff0cb"/><rect x="17" y="83" width="89" height="1" fill="#fff0cb"/><rect x="17" y="84" width="89" height="1" fill="#fff0cb"/><rect x="17" y="85" width="89" height="1" fill="#fff0cb"/><rect x="17" y="86" width="44" height="1" fill="#fff0cb"/><rect x="24" y="60" width="18" height="24" fill="#f7e4b4"/><rect x="36" y="47" width="20" height="31" fill="#fff0cb"/><rect x="81" y="51" width="20" height="30" fill="#f7e4b4"/><rect x="53" y="31" width="27" height="1" fill="#b45f4f"/><rect x="53" y="32" width="27" height="1" fill="#b45f4f"/><rect x="53" y="33" width="27" height="1" fill="#b45f4f"/><rect x="53" y="34" width="27" height="1" fill="#b45f4f"/><rect x="53" y="35" width="27" height="1" fill="#b45f4f"/><rect x="53" y="36" width="27" height="1" fill="#b45f4f"/><rect x="53" y="37" width="27" height="1" fill="#b45f4f"/><rect x="53" y="38" width="27" height="1" fill="#b45f4f"/><rect x="53" y="39" width="27" height="1" fill="#b45f4f"/><rect x="53" y="40" width="27" height="1" fill="#b45f4f"/><rect x="53" y="41" width="27" height="1" fill="#b45f4f"/><rect x="53" y="42" width="28" height="1" fill="#b45f4f"/><rect x="53" y="43" width="28" height="1" fill="#b45f4f"/><rect x="53" y="44" width="28" height="1" fill="#b45f4f"/><rect x="53" y="45" width="28" height="1" fill="#b45f4f"/><rect x="53" y="46" width="28" height="1" fill="#b45f4f"/><rect x="53" y="47" width="28" height="1" fill="#b45f4f"/><rect x="52" y="48" width="29" height="1" fill="#b45f4f"/><rect x="52" y="49" width="29" height="1" fill="#b45f4f"/><rect x="52" y="50" width="29" height="1" fill="#b45f4f"/><rect x="52" y="51" width="29" height="1" fill="#b45f4f"/><rect x="52" y="52" width="29" height="1" fill="#b45f4f"/><rect x="52" y="53" width="29" height="1" fill="#b45f4f"/><rect x="52" y="54" width="30" height="1" fill="#b45f4f"/><rect x="52" y="55" width="30" height="1" fill="#b45f4f"/><rect x="52" y="56" width="30" height="1" fill="#b45f4f"/><rect x="52" y="57" width="30" height="1" fill="#b45f4f"/><rect x="52" y="58" width="30" height="1" fill="#b45f4f"/><rect x="52" y="59" width="30" height="1" fill="#b45f4f"/><rect x="52" y="60" width="30" height="1" fill="#b45f4f"/><rect x="52" y="61" width="30" height="1" fill="#b45f4f"/><rect x="52" y="62" width="30" height="1" fill="#b45f4f"/><rect x="52" y="63" width="30" height="1" fill="#b45f4f"/><rect x="52" y="64" width="30" height="1" fill="#b45f4f"/><rect x="50" y="29" width="32" height="4" fill="#d2a14f"/><rect x="55" y="23" width="9" height="6" fill="#d2a14f"/><rect x="68" y="23" width="10" height="6" fill="#d2a14f"/><rect x="52" y="46" width="30" height="3" fill="#8c5747"/><rect x="58" y="36" width="4" height="5" fill="#d2a14f"/><rect x="71" y="36" width="4" height="5" fill="#d2a14f"/><rect x="59" y="54" width="4" height="6" fill="#3f6c61"/><rect x="71" y="54" width="4" height="6" fill="#3f6c61"/><rect x="23" y="69" width="3" height="4" fill="#3f6c61"/><rect x="31" y="74" width="3" height="4" fill="#3f6c61"/><rect x="40" y="56" width="3" height="4" fill="#3f6c61"/><rect x="47" y="61" width="3" height="4" fill="#3f6c61"/><rect x="87" y="58" width="3" height="4" fill="#3f6c61"/><rect x="95" y="68" width="3" height="4" fill="#3f6c61"/><rect x="86" y="73" width="3" height="4" fill="#3f6c61"/><rect x="39" y="70" width="3" height="4" fill="#3f6c61"/><rect x="38" y="78" width="54" height="5" fill="#dcc28e"/><rect x="30" y="84" width="67" height="4" fill="#b8b89a"/><rect x="22" y="90" width="82" height="4" fill="#dcc28e"/><rect x="14" y="96" width="98" height="4" fill="#b8b89a"/><rect x="45" y="66" width="3" height="3" fill="#fff0cb"/><rect x="44" y="67" width="3" height="3" fill="#fff0cb"/><rect x="44" y="68" width="3" height="3" fill="#fff0cb"/><rect x="43" y="69" width="3" height="3" fill="#fff0cb"/><rect x="43" y="70" width="3" height="3" fill="#fff0cb"/><rect x="42" y="71" width="3" height="3" fill="#fff0cb"/><rect x="41" y="72" width="3" height="3" fill="#fff0cb"/><rect x="41" y="73" width="3" height="3" fill="#fff0cb"/><rect x="40" y="74" width="3" height="3" fill="#fff0cb"/><rect x="39" y="75" width="3" height="3" fill="#fff0cb"/><rect x="39" y="76" width="3" height="3" fill="#fff0cb"/><rect x="38" y="77" width="3" height="3" fill="#fff0cb"/><rect x="38" y="78" width="3" height="3" fill="#fff0cb"/><rect x="37" y="79" width="3" height="3" fill="#fff0cb"/><rect x="36" y="80" width="3" height="3" fill="#fff0cb"/><rect x="36" y="81" width="3" height="3" fill="#fff0cb"/><rect x="35" y="82" width="3" height="3" fill="#fff0cb"/><rect x="34" y="83" width="3" height="3" fill="#fff0cb"/><rect x="34" y="84" width="3" height="3" fill="#fff0cb"/><rect x="33" y="85" width="3" height="3" fill="#fff0cb"/><rect x="33" y="86" width="3" height="3" fill="#fff0cb"/><rect x="32" y="87" width="3" height="3" fill="#fff0cb"/><rect x="31" y="88" width="3" height="3" fill="#fff0cb"/><rect x="31" y="89" width="3" height="3" fill="#fff0cb"/><rect x="30" y="90" width="3" height="3" fill="#fff0cb"/><rect x="84" y="68" width="3" height="3" fill="#fff0cb"/><rect x="85" y="69" width="3" height="3" fill="#fff0cb"/><rect x="86" y="70" width="3" height="3" fill="#fff0cb"/><rect x="86" y="71" width="3" height="3" fill="#fff0cb"/><rect x="87" y="72" width="3" height="3" fill="#fff0cb"/><rect x="88" y="73" width="3" height="3" fill="#fff0cb"/><rect x="89" y="74" width="3" height="3" fill="#fff0cb"/><rect x="89" y="75" width="3" height="3" fill="#fff0cb"/><rect x="90" y="76" width="3" height="3" fill="#fff0cb"/><rect x="91" y="77" width="3" height="3" fill="#fff0cb"/><rect x="92" y="78" width="3" height="3" fill="#fff0cb"/><rect x="92" y="79" width="3" height="3" fill="#fff0cb"/><rect x="93" y="80" width="3" height="3" fill="#fff0cb"/><rect x="94" y="81" width="3" height="3" fill="#fff0cb"/><rect x="95" y="82" width="3" height="3" fill="#fff0cb"/><rect x="95" y="83" width="3" height="3" fill="#fff0cb"/><rect x="96" y="84" width="3" height="3" fill="#fff0cb"/><rect x="97" y="85" width="3" height="3" fill="#fff0cb"/><rect x="98" y="86" width="3" height="3" fill="#fff0cb"/><rect x="98" y="87" width="3" height="3" fill="#fff0cb"/><rect x="99" y="88" width="3" height="3" fill="#fff0cb"/></svg>
