<svg xmlns="http://www.w3.org/2000/svg" viewBox="0 0 96 80" shape-rendering="crispEdges"><polygon points="5,62 69,57 94,64 76,75 13,76 1,70" fill="#b6c79e"/><polygon points="1,70 13,76 76,75 94,64 94,69 77,80 12,80 1,75" fill="#81977b"/><polygon points="7,64 71,60 88,65 73,71 16,72" fill="#cbd5ae"/><g transform="translate(0 25)"><rect x="7" y="15" width="3" height="12" fill="#887657"/><rect x="3" y="5" width="12" height="13" fill="#b6ae64"/><rect x="0" y="9" width="18" height="8" fill="#b6ae64"/><rect x="6" y="2" width="6" height="5" fill="#b6ae64"/><rect x="4" y="7" width="5" height="6" fill="#a3bb7e"/><rect x="4" y="26" width="12" height="2" fill="#8ea68a"/></g><g transform="translate(73 26)"><rect x="7" y="15" width="3" height="12" fill="#887657"/><rect x="3" y="5" width="12" height="13" fill="#9baf6a"/><rect x="0" y="9" width="18" height="8" fill="#9baf6a"/><rect x="6" y="2" width="6" height="5" fill="#9baf6a"/><rect x="4" y="7" width="5" height="6" fill="#a3bb7e"/><rect x="4" y="26" width="12" height="2" fill="#8ea68a"/></g><rect x="14" y="41" width="68" height="28" fill="#849888"/><rect x="17" y="37" width="10" height="7" fill="#9bae95"/><rect x="34" y="37" width="10" height="7" fill="#9bae95"/><rect x="51" y="37" width="10" height="7" fill="#9bae95"/><rect x="69" y="37" width="10" height="7" fill="#9bae95"/><rect x="38" y="53" width="19" height="17" fill="#4b685a"/><rect x="41" y="49" width="13" height="7" fill="#4b685a"/><rect x="29" y="25" width="37" height="14" fill="#c4b489"/><rect x="22" y="25" width="51" height="3" fill="#4a6860"/><rect x="25" y="22" width="45" height="3" fill="#4c7b70"/><rect x="29" y="19" width="37" height="3" fill="#4c7b70"/><rect x="33" y="17" width="29" height="2" fill="#4c7b70"/><rect x="22" y="23" width="3" height="2" fill="#4c7b70"/><rect x="70" y="23" width="3" height="2" fill="#4c7b70"/><rect x="30" y="21" width="35" height="1" fill="#d7bb73"/><rect x="34" y="29" width="2" height="3" fill="#ffe1a0"/><rect x="40" y="29" width="2" height="3" fill="#ffe1a0"/><rect x="46" y="29" width="2" height="3" fill="#ffe1a0"/><rect x="52" y="29" width="2" height="3" fill="#ffe1a0"/><rect x="58" y="29" width="2" height="3" fill="#ffe1a0"/><rect x="9" y="70" width="76" height="3" fill="#d4c89e"/><g transform="translate(21 59)"><rect x="1" y="0" width="3" height="3" fill="#584e43"/><rect x="1" y="2" width="3" height="3" fill="#f0cc9a"/><rect x="0" y="5" width="5" height="5" fill="#c99b63"/><rect x="0" y="10" width="2" height="3" fill="#526357"/><rect x="3" y="10" width="2" height="3" fill="#526357"/></g></svg>