<svg xmlns="http://www.w3.org/2000/svg" viewBox="0 0 128 116" shape-rendering="crispEdges" role="img" aria-labelledby="title"><title id="title">首尔 · 景福宫</title><rect x="81" y="79" width="12" height="1" fill="#bfd0a4"/><rect x="60" y="80" width="35" height="1" fill="#bfd0a4"/><rect x="39" y="81" width="59" height="1" fill="#bfd0a4"/><rect x="18" y="82" width="83" height="1" fill="#bfd0a4"/><rect x="7" y="83" width="96" height="1" fill="#bfd0a4"/><rect x="7" y="84" width="99" height="1" fill="#bfd0a4"/><rect x="7" y="85" width="101" height="1" fill="#bfd0a4"/><rect x="7" y="86" width="104" height="1" fill="#bfd0a4"/><rect x="7" y="87" width="106" height="1" fill="#bfd0a4"/><rect x="6" y="88" width="110" height="1" fill="#bfd0a4"/><rect x="6" y="89" width="113" height="1" fill="#bfd0a4"/><rect x="6" y="90" width="115" height="1" fill="#bfd0a4"/><rect x="6" y="91" width="116" height="1" fill="#bfd0a4"/><rect x="6" y="92" width="114" height="1" fill="#bfd0a4"/><rect x="5" y="93" width="114" height="1" fill="#bfd0a4"/><rect x="5" y="94" width="113" height="1" fill="#bfd0a4"/><rect x="5" y="95" width="111" height="1" fill="#bfd0a4"/><rect x="5" y="96" width="110" height="1" fill="#bfd0a4"/><rect x="5" y="97" width="109" height="1" fill="#bfd0a4"/><rect x="5" y="98" width="107" height="1" fill="#bfd0a4"/><rect x="7" y="99" width="104" height="1" fill="#bfd0a4"/><rect x="9" y="100" width="101" height="1" fill="#bfd0a4"/><rect x="11" y="101" width="97" height="1" fill="#bfd0a4"/><rect x="13" y="102" width="94" height="1" fill="#bfd0a4"/><rect x="15" y="103" width="91" height="1" fill="#bfd0a4"/><rect x="17" y="104" width="87" height="1" fill="#bfd0a4"/><rect x="19" y="105" width="71" height="1" fill="#bfd0a4"/><rect x="21" y="106" width="42" height="1" fill="#bfd0a4"/><rect x="23" y="107" width="14" height="1" fill="#bfd0a4"/><rect x="120" y="92" width="2" height="1" fill="#849b7d"/><rect x="119" y="93" width="3" height="1" fill="#849b7d"/><rect x="118" y="94" width="4" height="1" fill="#849b7d"/><rect x="116" y="95" width="6" height="1" fill="#849b7d"/><rect x="115" y="96" width="7" height="1" fill="#849b7d"/><rect x="114" y="97" width="8" height="1" fill="#849b7d"/><rect x="4" y="98" width="1" height="1" fill="#849b7d"/><rect x="112" y="98" width="10" height="1" fill="#849b7d"/><rect x="4" y="99" width="3" height="1" fill="#849b7d"/><rect x="111" y="99" width="10" height="1" fill="#849b7d"/><rect x="4" y="100" width="5" height="1" fill="#849b7d"/><rect x="110" y="100" width="9" height="1" fill="#849b7d"/><rect x="4" y="101" width="7" height="1" fill="#849b7d"/><rect x="108" y="101" width="10" height="1" fill="#849b7d"/><rect x="4" y="102" width="9" height="1" fill="#849b7d"/><rect x="107" y="102" width="10" height="1" fill="#849b7d"/><rect x="4" y="103" width="11" height="1" fill="#849b7d"/><rect x="106" y="103" width="9" height="1" fill="#849b7d"/><rect x="4" y="104" width="13" height="1" fill="#849b7d"/><rect x="104" y="104" width="10" height="1" fill="#849b7d"/><rect x="6" y="105" width="13" height="1" fill="#849b7d"/><rect x="90" y="105" width="23" height="1" fill="#849b7d"/><rect x="8" y="106" width="13" height="1" fill="#849b7d"/><rect x="63" y="106" width="49" height="1" fill="#849b7d"/><rect x="10" y="107" width="13" height="1" fill="#849b7d"/><rect x="37" y="107" width="73" height="1" fill="#849b7d"/><rect x="12" y="108" width="97" height="1" fill="#849b7d"/><rect x="14" y="109" width="94" height="1" fill="#849b7d"/><rect x="16" y="110" width="90" height="1" fill="#849b7d"/><rect x="18" y="111" width="87" height="1" fill="#849b7d"/><rect x="20" y="112" width="64" height="1" fill="#849b7d"/><rect x="22" y="113" width="22" height="1" fill="#849b7d"/><rect x="76" y="82" width="14" height="1" fill="#d2dbb7"/><rect x="50" y="83" width="42" height="1" fill="#d2dbb7"/><rect x="24" y="84" width="71" height="1" fill="#d2dbb7"/><rect x="11" y="85" width="87" height="1" fill="#d2dbb7"/><rect x="11" y="86" width="89" height="1" fill="#d2dbb7"/><rect x="11" y="87" width="92" height="1" fill="#d2dbb7"/><rect x="11" y="88" width="94" height="1" fill="#d2dbb7"/><rect x="11" y="89" width="97" height="1" fill="#d2dbb7"/><rect x="10" y="90" width="101" height="1" fill="#d2dbb7"/><rect x="10" y="91" width="103" height="1" fill="#d2dbb7"/><rect x="10" y="92" width="104" height="1" fill="#d2dbb7"/><rect x="10" y="93" width="102" height="1" fill="#d2dbb7"/><rect x="10" y="94" width="101" height="1" fill="#d2dbb7"/><rect x="10" y="95" width="99" height="1" fill="#d2dbb7"/><rect x="11" y="96" width="96" height="1" fill="#d2dbb7"/><rect x="13" y="97" width="93" height="1" fill="#d2dbb7"/><rect x="15" y="98" width="89" height="1" fill="#d2dbb7"/><rect x="17" y="99" width="86" height="1" fill="#d2dbb7"/><rect x="20" y="100" width="81" height="1" fill="#d2dbb7"/><rect x="22" y="101" width="60" height="1" fill="#d2dbb7"/><rect x="24" y="102" width="20" height="1" fill="#d2dbb7"/><rect x="19" y="62" width="92" height="26" fill="#b45f4f"/><rect x="11" y="59" width="107" height="3" fill="#3f6c61"/><rect x="14" y="56" width="101" height="3" fill="#54857a"/><rect x="18" y="53" width="93" height="3" fill="#54857a"/><rect x="23" y="50" width="83" height="3" fill="#54857a"/><rect x="10" y="57" width="4" height="2" fill="#54857a"/><rect x="115" y="57" width="4" height="2" fill="#54857a"/><rect x="33" y="39" width="64" height="20" fill="#b45f4f"/><rect x="22" y="36" width="86" height="3" fill="#3f6c61"/><rect x="25" y="33" width="80" height="3" fill="#54857a"/><rect x="29" y="30" width="72" height="3" fill="#54857a"/><rect x="34" y="27" width="62" height="3" fill="#54857a"/><rect x="21" y="34" width="4" height="2" fill="#54857a"/><rect x="105" y="34" width="4" height="2" fill="#54857a"/><rect x="27" y="67" width="3" height="4" fill="#f7e4b4"/><rect x="34" y="67" width="3" height="4" fill="#f7e4b4"/><rect x="41" y="67" width="3" height="4" fill="#f7e4b4"/><rect x="48" y="67" width="3" height="4" fill="#f7e4b4"/><rect x="55" y="67" width="3" height="4" fill="#f7e4b4"/><rect x="62" y="67" width="3" height="4" fill="#f7e4b4"/><rect x="69" y="67" width="3" height="4" fill="#f7e4b4"/><rect x="76" y="67" width="3" height="4" fill="#f7e4b4"/><rect x="83" y="67" width="3" height="4" fill="#f7e4b4"/><rect x="90" y="67" width="3" height="4" fill="#f7e4b4"/><rect x="97" y="67" width="3" height="4" fill="#f7e4b4"/><rect x="104" y="67" width="3" height="4" fill="#f7e4b4"/><rect x="27" y="74" width="3" height="4" fill="#f7e4b4"/><rect x="34" y="74" width="3" height="4" fill="#f7e4b4"/><rect x="41" y="74" width="3" height="4" fill="#f7e4b4"/><rect x="48" y="74" width="3" height="4" fill="#f7e4b4"/><rect x="55" y="74" width="3" height="4" fill="#f7e4b4"/><rect x="62" y="74" width="3" height="4" fill="#f7e4b4"/><rect x="69" y="74" width="3" height="4" fill="#f7e4b4"/><rect x="76" y="74" width="3" height="4" fill="#f7e4b4"/><rect x="83" y="74" width="3" height="4" fill="#f7e4b4"/><rect x="90" y="74" width="3" height="4" fill="#f7e4b4"/><rect x="97" y="74" width="3" height="4" fill="#f7e4b4"/><rect x="104" y="74" width="3" height="4" fill="#f7e4b4"/><rect x="27" y="81" width="3" height="4" fill="#f7e4b4"/><rect x="34" y="81" width="3" height="4" fill="#f7e4b4"/><rect x="41" y="81" width="3" height="4" fill="#f7e4b4"/><rect x="48" y="81" width="3" height="4" fill="#f7e4b4"/><rect x="55" y="81" width="3" height="4" fill="#f7e4b4"/><rect x="62" y="81" width="3" height="4" fill="#f7e4b4"/><rect x="69" y="81" width="3" height="4" fill="#f7e4b4"/><rect x="76" y="81" width="3" height="4" fill="#f7e4b4"/><rect x="83" y="81" width="3" height="4" fill="#f7e4b4"/><rect x="90" y="81" width="3" height="4" fill="#f7e4b4"/><rect x="97" y="81" width="3" height="4" fill="#f7e4b4"/><rect x="104" y="81" width="3" height="4" fill="#f7e4b4"/><rect x="30" y="88" width="70" height="5" fill="#b8b89a"/><rect x="38" y="93" width="53" height="4" fill="#b8b89a"/><g transform="translate(0 55) scale(0.75)"><rect x="8" y="15" width="3" height="18" fill="#927956"/><rect x="3" y="5" width="15" height="17" fill="#86a675"/><rect x="0" y="11" width="21" height="9" fill="#86a675"/><rect x="7" y="0" width="7" height="7" fill="#86a675"/><rect x="4" y="8" width="5" height="7" fill="#b6c68c"/></g><g transform="translate(110 58) scale(0.65)"><rect x="8" y="15" width="3" height="18" fill="#927956"/><rect x="3" y="5" width="15" height="17" fill="#86a675"/><rect x="0" y="11" width="21" height="9" fill="#86a675"/><rect x="7" y="0" width="7" height="7" fill="#86a675"/><rect x="4" y="8" width="5" height="7" fill="#b6c68c"/></g></svg>
