<svg xmlns="http://www.w3.org/2000/svg" viewBox="0 0 128 116" shape-rendering="crispEdges" role="img" aria-labelledby="title"><title id="title">扬州 · 瘦西湖五亭桥</title><rect x="81" y="79" width="12" height="1" fill="#bfd0a4"/><rect x="60" y="80" width="35" height="1" fill="#bfd0a4"/><rect x="39" y="81" width="59" height="1" fill="#bfd0a4"/><rect x="18" y="82" width="83" height="1" fill="#bfd0a4"/><rect x="7" y="83" width="96" height="1" fill="#bfd0a4"/><rect x="7" y="84" width="99" height="1" fill="#bfd0a4"/><rect x="7" y="85" width="101" height="1" fill="#bfd0a4"/><rect x="7" y="86" width="104" height="1" fill="#bfd0a4"/><rect x="7" y="87" width="106" height="1" fill="#bfd0a4"/><rect x="6" y="88" width="110" height="1" fill="#bfd0a4"/><rect x="6" y="89" width="113" height="1" fill="#bfd0a4"/><rect x="6" y="90" width="115" height="1" fill="#bfd0a4"/><rect x="6" y="91" width="116" height="1" fill="#bfd0a4"/><rect x="6" y="92" width="114" height="1" fill="#bfd0a4"/><rect x="5" y="93" width="114" height="1" fill="#bfd0a4"/><rect x="5" y="94" width="113" height="1" fill="#bfd0a4"/><rect x="5" y="95" width="111" height="1" fill="#bfd0a4"/><rect x="5" y="96" width="110" height="1" fill="#bfd0a4"/><rect x="5" y="97" width="109" height="1" fill="#bfd0a4"/><rect x="5" y="98" width="107" height="1" fill="#bfd0a4"/><rect x="7" y="99" width="104" height="1" fill="#bfd0a4"/><rect x="9" y="100" width="101" height="1" fill="#bfd0a4"/><rect x="11" y="101" width="97" height="1" fill="#bfd0a4"/><rect x="13" y="102" width="94" height="1" fill="#bfd0a4"/><rect x="15" y="103" width="91" height="1" fill="#bfd0a4"/><rect x="17" y="104" width="87" height="1" fill="#bfd0a4"/><rect x="19" y="105" width="71" height="1" fill="#bfd0a4"/><rect x="21" y="106" width="42" height="1" fill="#bfd0a4"/><rect x="23" y="107" width="14" height="1" fill="#bfd0a4"/><rect x="120" y="92" width="2" height="1" fill="#849b7d"/><rect x="119" y="93" width="3" height="1" fill="#849b7d"/><rect x="118" y="94" width="4" height="1" fill="#849b7d"/><rect x="116" y="95" width="6" height="1" fill="#849b7d"/><rect x="115" y="96" width="7" height="1" fill="#849b7d"/><rect x="114" y="97" width="8" height="1" fill="#849b7d"/><rect x="4" y="98" width="1" height="1" fill="#849b7d"/><rect x="112" y="98" width="10" height="1" fill="#849b7d"/><rect x="4" y="99" width="3" height="1" fill="#849b7d"/><rect x="111" y="99" width="10" height="1" fill="#849b7d"/><rect x="4" y="100" width="5" height="1" fill="#849b7d"/><rect x="110" y="100" width="9" height="1" fill="#849b7d"/><rect x="4" y="101" width="7" height="1" fill="#849b7d"/><rect x="108" y="101" width="10" height="1" fill="#849b7d"/><rect x="4" y="102" width="9" height="1" fill="#849b7d"/><rect x="107" y="102" width="10" height="1" fill="#849b7d"/><rect x="4" y="103" width="11" height="1" fill="#849b7d"/><rect x="106" y="103" width="9" height="1" fill="#849b7d"/><rect x="4" y="104" width="13" height="1" fill="#849b7d"/><rect x="104" y="104" width="10" height="1" fill="#849b7d"/><rect x="6" y="105" width="13" height="1" fill="#849b7d"/><rect x="90" y="105" width="23" height="1" fill="#849b7d"/><rect x="8" y="106" width="13" height="1" fill="#849b7d"/><rect x="63" y="106" width="49" height="1" fill="#849b7d"/><rect x="10" y="107" width="13" height="1" fill="#849b7d"/><rect x="37" y="107" width="73" height="1" fill="#849b7d"/><rect x="12" y="108" width="97" height="1" fill="#849b7d"/><rect x="14" y="109" width="94" height="1" fill="#849b7d"/><rect x="16" y="110" width="90" height="1" fill="#849b7d"/><rect x="18" y="111" width="87" height="1" fill="#849b7d"/><rect x="20" y="112" width="64" height="1" fill="#849b7d"/><rect x="22" y="113" width="22" height="1" fill="#849b7d"/><rect x="76" y="82" width="14" height="1" fill="#d2dbb7"/><rect x="50" y="83" width="42" height="1" fill="#d2dbb7"/><rect x="24" y="84" width="71" height="1" fill="#d2dbb7"/><rect x="11" y="85" width="87" height="1" fill="#d2dbb7"/><rect x="11" y="86" width="89" height="1" fill="#d2dbb7"/><rect x="11" y="87" width="92" height="1" fill="#d2dbb7"/><rect x="11" y="88" width="94" height="1" fill="#d2dbb7"/><rect x="11" y="89" width="97" height="1" fill="#d2dbb7"/><rect x="10" y="90" width="101" height="1" fill="#d2dbb7"/><rect x="10" y="91" width="103" height="1" fill="#d2dbb7"/><rect x="10" y="92" width="104" height="1" fill="#d2dbb7"/><rect x="10" y="93" width="102" height="1" fill="#d2dbb7"/><rect x="10" y="94" width="101" height="1" fill="#d2dbb7"/><rect x="10" y="95" width="99" height="1" fill="#d2dbb7"/><rect x="11" y="96" width="96" height="1" fill="#d2dbb7"/><rect x="13" y="97" width="93" height="1" fill="#d2dbb7"/><rect x="15" y="98" width="89" height="1" fill="#d2dbb7"/><rect x="17" y="99" width="86" height="1" fill="#d2dbb7"/><rect x="20" y="100" width="81" height="1" fill="#d2dbb7"/><rect x="22" y="101" width="60" height="1" fill="#d2dbb7"/><rect x="24" y="102" width="20" height="1" fill="#d2dbb7"/><rect x="80" y="85" width="10" height="1" fill="#88c8c1"/><rect x="64" y="86" width="29" height="1" fill="#88c8c1"/><rect x="48" y="87" width="49" height="1" fill="#88c8c1"/><rect x="32" y="88" width="68" height="1" fill="#88c8c1"/><rect x="16" y="89" width="87" height="1" fill="#88c8c1"/><rect x="8" y="90" width="98" height="1" fill="#88c8c1"/><rect x="8" y="91" width="101" height="1" fill="#88c8c1"/><rect x="8" y="92" width="105" height="1" fill="#88c8c1"/><rect x="8" y="93" width="108" height="1" fill="#88c8c1"/><rect x="7" y="94" width="110" height="1" fill="#88c8c1"/><rect x="7" y="95" width="108" height="1" fill="#88c8c1"/><rect x="7" y="96" width="106" height="1" fill="#88c8c1"/><rect x="7" y="97" width="104" height="1" fill="#88c8c1"/><rect x="7" y="98" width="102" height="1" fill="#88c8c1"/><rect x="8" y="99" width="100" height="1" fill="#88c8c1"/><rect x="10" y="100" width="96" height="1" fill="#88c8c1"/><rect x="13" y="101" width="91" height="1" fill="#88c8c1"/><rect x="15" y="102" width="87" height="1" fill="#88c8c1"/><rect x="17" y="103" width="83" height="1" fill="#88c8c1"/><rect x="20" y="104" width="60" height="1" fill="#88c8c1"/><rect x="22" y="105" width="20" height="1" fill="#88c8c1"/><rect x="14" y="95" width="7" height="1" fill="#d7eee0"/><rect x="26" y="98" width="7" height="1" fill="#d7eee0"/><rect x="38" y="101" width="7" height="1" fill="#d7eee0"/><rect x="50" y="95" width="7" height="1" fill="#d7eee0"/><rect x="62" y="98" width="7" height="1" fill="#d7eee0"/><rect x="74" y="101" width="7" height="1" fill="#d7eee0"/><rect x="86" y="95" width="7" height="1" fill="#d7eee0"/><rect x="98" y="98" width="7" height="1" fill="#d7eee0"/><rect x="12" y="82" width="106" height="13" fill="#dcc28e"/><rect x="17" y="96" width="15" height="4" fill="#88c8c1"/><rect x="25" y="88" width="1" height="1" fill="#88c8c1"/><rect x="22" y="89" width="7" height="1" fill="#88c8c1"/><rect x="20" y="90" width="11" height="1" fill="#88c8c1"/><rect x="19" y="91" width="13" height="1" fill="#88c8c1"/><rect x="19" y="92" width="13" height="1" fill="#88c8c1"/><rect x="18" y="93" width="15" height="1" fill="#88c8c1"/><rect x="18" y="94" width="15" height="1" fill="#88c8c1"/><rect x="18" y="95" width="15" height="1" fill="#88c8c1"/><rect x="18" y="96" width="15" height="1" fill="#88c8c1"/><rect x="18" y="97" width="15" height="1" fill="#88c8c1"/><rect x="18" y="98" width="15" height="1" fill="#88c8c1"/><rect x="19" y="99" width="13" height="1" fill="#88c8c1"/><rect x="19" y="100" width="13" height="1" fill="#88c8c1"/><rect x="20" y="101" width="11" height="1" fill="#88c8c1"/><rect x="21" y="102" width="9" height="1" fill="#88c8c1"/><rect x="24" y="103" width="3" height="1" fill="#88c8c1"/><rect x="37" y="96" width="15" height="4" fill="#88c8c1"/><rect x="45" y="88" width="1" height="1" fill="#88c8c1"/><rect x="42" y="89" width="7" height="1" fill="#88c8c1"/><rect x="40" y="90" width="11" height="1" fill="#88c8c1"/><rect x="39" y="91" width="13" height="1" fill="#88c8c1"/><rect x="39" y="92" width="13" height="1" fill="#88c8c1"/><rect x="38" y="93" width="15" height="1" fill="#88c8c1"/><rect x="38" y="94" width="15" height="1" fill="#88c8c1"/><rect x="38" y="95" width="15" height="1" fill="#88c8c1"/><rect x="38" y="96" width="15" height="1" fill="#88c8c1"/><rect x="38" y="97" width="15" height="1" fill="#88c8c1"/><rect x="38" y="98" width="15" height="1" fill="#88c8c1"/><rect x="39" y="99" width="13" height="1" fill="#88c8c1"/><rect x="39" y="100" width="13" height="1" fill="#88c8c1"/><rect x="40" y="101" width="11" height="1" fill="#88c8c1"/><rect x="41" y="102" width="9" height="1" fill="#88c8c1"/><rect x="44" y="103" width="3" height="1" fill="#88c8c1"/><rect x="57" y="96" width="15" height="4" fill="#88c8c1"/><rect x="65" y="88" width="1" height="1" fill="#88c8c1"/><rect x="62" y="89" width="7" height="1" fill="#88c8c1"/><rect x="60" y="90" width="11" height="1" fill="#88c8c1"/><rect x="59" y="91" width="13" height="1" fill="#88c8c1"/><rect x="59" y="92" width="13" height="1" fill="#88c8c1"/><rect x="58" y="93" width="15" height="1" fill="#88c8c1"/><rect x="58" y="94" width="15" height="1" fill="#88c8c1"/><rect x="58" y="95" width="15" height="1" fill="#88c8c1"/><rect x="58" y="96" width="15" height="1" fill="#88c8c1"/><rect x="58" y="97" width="15" height="1" fill="#88c8c1"/><rect x="58" y="98" width="15" height="1" fill="#88c8c1"/><rect x="59" y="99" width="13" height="1" fill="#88c8c1"/><rect x="59" y="100" width="13" height="1" fill="#88c8c1"/><rect x="60" y="101" width="11" height="1" fill="#88c8c1"/><rect x="61" y="102" width="9" height="1" fill="#88c8c1"/><rect x="64" y="103" width="3" height="1" fill="#88c8c1"/><rect x="78" y="96" width="15" height="4" fill="#88c8c1"/><rect x="85" y="88" width="1" height="1" fill="#88c8c1"/><rect x="82" y="89" width="7" height="1" fill="#88c8c1"/><rect x="80" y="90" width="11" height="1" fill="#88c8c1"/><rect x="79" y="91" width="13" height="1" fill="#88c8c1"/><rect x="79" y="92" width="13" height="1" fill="#88c8c1"/><rect x="78" y="93" width="15" height="1" fill="#88c8c1"/><rect x="78" y="94" width="15" height="1" fill="#88c8c1"/><rect x="78" y="95" width="15" height="1" fill="#88c8c1"/><rect x="78" y="96" width="15" height="1" fill="#88c8c1"/><rect x="78" y="97" width="15" height="1" fill="#88c8c1"/><rect x="78" y="98" width="15" height="1" fill="#88c8c1"/><rect x="79" y="99" width="13" height="1" fill="#88c8c1"/><rect x="79" y="100" width="13" height="1" fill="#88c8c1"/><rect x="80" y="101" width="11" height="1" fill="#88c8c1"/><rect x="81" y="102" width="9" height="1" fill="#88c8c1"/><rect x="84" y="103" width="3" height="1" fill="#88c8c1"/><rect x="98" y="96" width="15" height="4" fill="#88c8c1"/><rect x="105" y="88" width="1" height="1" fill="#88c8c1"/><rect x="102" y="89" width="7" height="1" fill="#88c8c1"/><rect x="100" y="90" width="11" height="1" fill="#88c8c1"/><rect x="99" y="91" width="13" height="1" fill="#88c8c1"/><rect x="99" y="92" width="13" height="1" fill="#88c8c1"/><rect x="98" y="93" width="15" height="1" fill="#88c8c1"/><rect x="98" y="94" width="15" height="1" fill="#88c8c1"/><rect x="98" y="95" width="15" height="1" fill="#88c8c1"/><rect x="98" y="96" width="15" height="1" fill="#88c8c1"/><rect x="98" y="97" width="15" height="1" fill="#88c8c1"/><rect x="98" y="98" width="15" height="1" fill="#88c8c1"/><rect x="99" y="99" width="13" height="1" fill="#88c8c1"/><rect x="99" y="100" width="13" height="1" fill="#88c8c1"/><rect x="100" y="101" width="11" height="1" fill="#88c8c1"/><rect x="101" y="102" width="9" height="1" fill="#88c8c1"/><rect x="104" y="103" width="3" height="1" fill="#88c8c1"/><rect x="10" y="79" width="110" height="3" fill="#b8b89a"/><rect x="13" y="67" width="20" height="14" fill="#f7e4b4"/><rect x="29" y="67" width="4" height="14" fill="#dcc28e"/><rect x="8" y="67" width="30" height="3" fill="#3f6c61"/><rect x="11" y="64" width="24" height="3" fill="#d2a14f"/><rect x="15" y="61" width="16" height="3" fill="#d2a14f"/><rect x="20" y="58" width="6" height="3" fill="#d2a14f"/><rect x="7" y="65" width="4" height="2" fill="#d2a14f"/><rect x="35" y="65" width="4" height="2" fill="#d2a14f"/><rect x="18" y="73" width="3" height="4" fill="#3f6c61"/><rect x="25" y="73" width="3" height="4" fill="#3f6c61"/><rect x="19" y="70" width="8" height="11" fill="#b45f4f"/><rect x="9" y="81" width="28" height="3" fill="#b8b89a"/><rect x="37" y="64" width="20" height="16" fill="#f7e4b4"/><rect x="53" y="64" width="4" height="16" fill="#dcc28e"/><rect x="32" y="64" width="30" height="3" fill="#3f6c61"/><rect x="35" y="61" width="24" height="3" fill="#d2a14f"/><rect x="39" y="58" width="16" height="3" fill="#d2a14f"/><rect x="44" y="55" width="6" height="3" fill="#d2a14f"/><rect x="31" y="62" width="4" height="2" fill="#d2a14f"/><rect x="59" y="62" width="4" height="2" fill="#d2a14f"/><rect x="42" y="70" width="3" height="4" fill="#3f6c61"/><rect x="49" y="70" width="3" height="4" fill="#3f6c61"/><rect x="43" y="69" width="8" height="11" fill="#b45f4f"/><rect x="33" y="80" width="28" height="3" fill="#b8b89a"/><rect x="85" y="67" width="20" height="14" fill="#f7e4b4"/><rect x="101" y="67" width="4" height="14" fill="#dcc28e"/><rect x="80" y="67" width="30" height="3" fill="#3f6c61"/><rect x="83" y="64" width="24" height="3" fill="#d2a14f"/><rect x="87" y="61" width="16" height="3" fill="#d2a14f"/><rect x="92" y="58" width="6" height="3" fill="#d2a14f"/><rect x="79" y="65" width="4" height="2" fill="#d2a14f"/><rect x="107" y="65" width="4" height="2" fill="#d2a14f"/><rect x="90" y="73" width="3" height="4" fill="#3f6c61"/><rect x="97" y="73" width="3" height="4" fill="#3f6c61"/><rect x="91" y="70" width="8" height="11" fill="#b45f4f"/><rect x="81" y="81" width="28" height="3" fill="#b8b89a"/><rect x="65" y="64" width="20" height="16" fill="#f7e4b4"/><rect x="81" y="64" width="4" height="16" fill="#dcc28e"/><rect x="60" y="64" width="30" height="3" fill="#3f6c61"/><rect x="63" y="61" width="24" height="3" fill="#d2a14f"/><rect x="67" y="58" width="16" height="3" fill="#d2a14f"/><rect x="72" y="55" width="6" height="3" fill="#d2a14f"/><rect x="59" y="62" width="4" height="2" fill="#d2a14f"/><rect x="87" y="62" width="4" height="2" fill="#d2a14f"/><rect x="70" y="70" width="3" height="4" fill="#3f6c61"/><rect x="77" y="70" width="3" height="4" fill="#3f6c61"/><rect x="71" y="69" width="8" height="11" fill="#b45f4f"/><rect x="61" y="80" width="28" height="3" fill="#b8b89a"/><rect x="50" y="47" width="29" height="26" fill="#f7e4b4"/><rect x="75" y="47" width="4" height="26" fill="#dcc28e"/><rect x="45" y="47" width="39" height="3" fill="#3f6c61"/><rect x="48" y="44" width="33" height="3" fill="#d2a14f"/><rect x="52" y="41" width="25" height="3" fill="#d2a14f"/><rect x="57" y="38" width="15" height="3" fill="#d2a14f"/><rect x="44" y="45" width="4" height="2" fill="#d2a14f"/><rect x="81" y="45" width="4" height="2" fill="#d2a14f"/><rect x="55" y="53" width="3" height="4" fill="#3f6c61"/><rect x="62" y="53" width="3" height="4" fill="#3f6c61"/><rect x="69" y="53" width="3" height="4" fill="#3f6c61"/><rect x="61" y="62" width="8" height="11" fill="#b45f4f"/><rect x="46" y="73" width="37" height="3" fill="#b8b89a"/><g transform="translate(0 54) scale(0.6)"><rect x="8" y="15" width="3" height="18" fill="#927956"/><rect x="3" y="5" width="15" height="17" fill="#86a675"/><rect x="0" y="11" width="21" height="9" fill="#86a675"/><rect x="7" y="0" width="7" height="7" fill="#86a675"/><rect x="4" y="8" width="5" height="7" fill="#b6c68c"/></g></svg>
