<svg xmlns="http://www.w3.org/2000/svg" viewBox="0 0 128 116" shape-rendering="crispEdges" role="img" aria-labelledby="title"><title id="title">珠海 · 日月贝</title><rect x="81" y="79" width="12" height="1" fill="#bfd0a4"/><rect x="60" y="80" width="35" height="1" fill="#bfd0a4"/><rect x="39" y="81" width="59" height="1" fill="#bfd0a4"/><rect x="18" y="82" width="83" height="1" fill="#bfd0a4"/><rect x="7" y="83" width="96" height="1" fill="#bfd0a4"/><rect x="7" y="84" width="99" height="1" fill="#bfd0a4"/><rect x="7" y="85" width="101" height="1" fill="#bfd0a4"/><rect x="7" y="86" width="104" height="1" fill="#bfd0a4"/><rect x="7" y="87" width="106" height="1" fill="#bfd0a4"/><rect x="6" y="88" width="110" height="1" fill="#bfd0a4"/><rect x="6" y="89" width="113" height="1" fill="#bfd0a4"/><rect x="6" y="90" width="115" height="1" fill="#bfd0a4"/><rect x="6" y="91" width="116" height="1" fill="#bfd0a4"/><rect x="6" y="92" width="114" height="1" fill="#bfd0a4"/><rect x="5" y="93" width="114" height="1" fill="#bfd0a4"/><rect x="5" y="94" width="113" height="1" fill="#bfd0a4"/><rect x="5" y="95" width="111" height="1" fill="#bfd0a4"/><rect x="5" y="96" width="110" height="1" fill="#bfd0a4"/><rect x="5" y="97" width="109" height="1" fill="#bfd0a4"/><rect x="5" y="98" width="107" height="1" fill="#bfd0a4"/><rect x="7" y="99" width="104" height="1" fill="#bfd0a4"/><rect x="9" y="100" width="101" height="1" fill="#bfd0a4"/><rect x="11" y="101" width="97" height="1" fill="#bfd0a4"/><rect x="13" y="102" width="94" height="1" fill="#bfd0a4"/><rect x="15" y="103" width="91" height="1" fill="#bfd0a4"/><rect x="17" y="104" width="87" height="1" fill="#bfd0a4"/><rect x="19" y="105" width="71" height="1" fill="#bfd0a4"/><rect x="21" y="106" width="42" height="1" fill="#bfd0a4"/><rect x="23" y="107" width="14" height="1" fill="#bfd0a4"/><rect x="120" y="92" width="2" height="1" fill="#849b7d"/><rect x="119" y="93" width="3" height="1" fill="#849b7d"/><rect x="118" y="94" width="4" height="1" fill="#849b7d"/><rect x="116" y="95" width="6" height="1" fill="#849b7d"/><rect x="115" y="96" width="7" height="1" fill="#849b7d"/><rect x="114" y="97" width="8" height="1" fill="#849b7d"/><rect x="4" y="98" width="1" height="1" fill="#849b7d"/><rect x="112" y="98" width="10" height="1" fill="#849b7d"/><rect x="4" y="99" width="3" height="1" fill="#849b7d"/><rect x="111" y="99" width="10" height="1" fill="#849b7d"/><rect x="4" y="100" width="5" height="1" fill="#849b7d"/><rect x="110" y="100" width="9" height="1" fill="#849b7d"/><rect x="4" y="101" width="7" height="1" fill="#849b7d"/><rect x="108" y="101" width="10" height="1" fill="#849b7d"/><rect x="4" y="102" width="9" height="1" fill="#849b7d"/><rect x="107" y="102" width="10" height="1" fill="#849b7d"/><rect x="4" y="103" width="11" height="1" fill="#849b7d"/><rect x="106" y="103" width="9" height="1" fill="#849b7d"/><rect x="4" y="104" width="13" height="1" fill="#849b7d"/><rect x="104" y="104" width="10" height="1" fill="#849b7d"/><rect x="6" y="105" width="13" height="1" fill="#849b7d"/><rect x="90" y="105" width="23" height="1" fill="#849b7d"/><rect x="8" y="106" width="13" height="1" fill="#849b7d"/><rect x="63" y="106" width="49" height="1" fill="#849b7d"/><rect x="10" y="107" width="13" height="1" fill="#849b7d"/><rect x="37" y="107" width="73" height="1" fill="#849b7d"/><rect x="12" y="108" width="97" height="1" fill="#849b7d"/><rect x="14" y="109" width="94" height="1" fill="#849b7d"/><rect x="16" y="110" width="90" height="1" fill="#849b7d"/><rect x="18" y="111" width="87" height="1" fill="#849b7d"/><rect x="20" y="112" width="64" height="1" fill="#849b7d"/><rect x="22" y="113" width="22" height="1" fill="#849b7d"/><rect x="76" y="82" width="14" height="1" fill="#d2dbb7"/><rect x="50" y="83" width="42" height="1" fill="#d2dbb7"/><rect x="24" y="84" width="71" height="1" fill="#d2dbb7"/><rect x="11" y="85" width="87" height="1" fill="#d2dbb7"/><rect x="11" y="86" width="89" height="1" fill="#d2dbb7"/><rect x="11" y="87" width="92" height="1" fill="#d2dbb7"/><rect x="11" y="88" width="94" height="1" fill="#d2dbb7"/><rect x="11" y="89" width="97" height="1" fill="#d2dbb7"/><rect x="10" y="90" width="101" height="1" fill="#d2dbb7"/><rect x="10" y="91" width="103" height="1" fill="#d2dbb7"/><rect x="10" y="92" width="104" height="1" fill="#d2dbb7"/><rect x="10" y="93" width="102" height="1" fill="#d2dbb7"/><rect x="10" y="94" width="101" height="1" fill="#d2dbb7"/><rect x="10" y="95" width="99" height="1" fill="#d2dbb7"/><rect x="11" y="96" width="96" height="1" fill="#d2dbb7"/><rect x="13" y="97" width="93" height="1" fill="#d2dbb7"/><rect x="15" y="98" width="89" height="1" fill="#d2dbb7"/><rect x="17" y="99" width="86" height="1" fill="#d2dbb7"/><rect x="20" y="100" width="81" height="1" fill="#d2dbb7"/><rect x="22" y="101" width="60" height="1" fill="#d2dbb7"/><rect x="24" y="102" width="20" height="1" fill="#d2dbb7"/><rect x="80" y="85" width="10" height="1" fill="#88c8c1"/><rect x="64" y="86" width="29" height="1" fill="#88c8c1"/><rect x="48" y="87" width="49" height="1" fill="#88c8c1"/><rect x="32" y="88" width="68" height="1" fill="#88c8c1"/><rect x="16" y="89" width="87" height="1" fill="#88c8c1"/><rect x="8" y="90" width="98" height="1" fill="#88c8c1"/><rect x="8" y="91" width="101" height="1" fill="#88c8c1"/><rect x="8" y="92" width="105" height="1" fill="#88c8c1"/><rect x="8" y="93" width="108" height="1" fill="#88c8c1"/><rect x="7" y="94" width="110" height="1" fill="#88c8c1"/><rect x="7" y="95" width="108" height="1" fill="#88c8c1"/><rect x="7" y="96" width="106" height="1" fill="#88c8c1"/><rect x="7" y="97" width="104" height="1" fill="#88c8c1"/><rect x="7" y="98" width="102" height="1" fill="#88c8c1"/><rect x="8" y="99" width="100" height="1" fill="#88c8c1"/><rect x="10" y="100" width="96" height="1" fill="#88c8c1"/><rect x="13" y="101" width="91" height="1" fill="#88c8c1"/><rect x="15" y="102" width="87" height="1" fill="#88c8c1"/><rect x="17" y="103" width="83" height="1" fill="#88c8c1"/><rect x="20" y="104" width="60" height="1" fill="#88c8c1"/><rect x="22" y="105" width="20" height="1" fill="#88c8c1"/><rect x="14" y="95" width="7" height="1" fill="#d7eee0"/><rect x="26" y="98" width="7" height="1" fill="#d7eee0"/><rect x="38" y="101" width="7" height="1" fill="#d7eee0"/><rect x="50" y="95" width="7" height="1" fill="#d7eee0"/><rect x="62" y="98" width="7" height="1" fill="#d7eee0"/><rect x="74" y="101" width="7" height="1" fill="#d7eee0"/><rect x="86" y="95" width="7" height="1" fill="#d7eee0"/><rect x="98" y="98" width="7" height="1" fill="#d7eee0"/><rect x="50" y="14" width="1" height="1" fill="#fff0cb"/><rect x="49" y="15" width="3" height="1" fill="#fff0cb"/><rect x="48" y="16" width="5" height="1" fill="#fff0cb"/><rect x="47" y="17" width="6" height="1" fill="#fff0cb"/><rect x="46" y="18" width="8" height="1" fill="#fff0cb"/><rect x="46" y="19" width="9" height="1" fill="#fff0cb"/><rect x="45" y="20" width="11" height="1" fill="#fff0cb"/><rect x="44" y="21" width="13" height="1" fill="#fff0cb"/><rect x="43" y="22" width="15" height="1" fill="#fff0cb"/><rect x="42" y="23" width="17" height="1" fill="#fff0cb"/><rect x="41" y="24" width="18" height="1" fill="#fff0cb"/><rect x="40" y="25" width="20" height="1" fill="#fff0cb"/><rect x="39" y="26" width="22" height="1" fill="#fff0cb"/><rect x="38" y="27" width="24" height="1" fill="#fff0cb"/><rect x="38" y="28" width="24" height="1" fill="#fff0cb"/><rect x="37" y="29" width="26" height="1" fill="#fff0cb"/><rect x="36" y="30" width="27" height="1" fill="#fff0cb"/><rect x="35" y="31" width="28" height="1" fill="#fff0cb"/><rect x="34" y="32" width="30" height="1" fill="#fff0cb"/><rect x="34" y="33" width="30" height="1" fill="#fff0cb"/><rect x="34" y="34" width="31" height="1" fill="#fff0cb"/><rect x="33" y="35" width="32" height="1" fill="#fff0cb"/><rect x="33" y="36" width="32" height="1" fill="#fff0cb"/><rect x="33" y="37" width="33" height="1" fill="#fff0cb"/><rect x="32" y="38" width="34" height="1" fill="#fff0cb"/><rect x="32" y="39" width="35" height="1" fill="#fff0cb"/><rect x="32" y="40" width="35" height="1" fill="#fff0cb"/><rect x="32" y="41" width="35" height="1" fill="#fff0cb"/><rect x="31" y="42" width="37" height="1" fill="#fff0cb"/><rect x="31" y="43" width="37" height="1" fill="#fff0cb"/><rect x="31" y="44" width="38" height="1" fill="#fff0cb"/><rect x="30" y="45" width="39" height="1" fill="#fff0cb"/><rect x="30" y="46" width="39" height="1" fill="#fff0cb"/><rect x="30" y="47" width="40" height="1" fill="#fff0cb"/><rect x="29" y="48" width="41" height="1" fill="#fff0cb"/><rect x="29" y="49" width="41" height="1" fill="#fff0cb"/><rect x="29" y="50" width="41" height="1" fill="#fff0cb"/><rect x="28" y="51" width="42" height="1" fill="#fff0cb"/><rect x="28" y="52" width="42" height="1" fill="#fff0cb"/><rect x="28" y="53" width="42" height="1" fill="#fff0cb"/><rect x="28" y="54" width="42" height="1" fill="#fff0cb"/><rect x="27" y="55" width="43" height="1" fill="#fff0cb"/><rect x="27" y="56" width="43" height="1" fill="#fff0cb"/><rect x="27" y="57" width="43" height="1" fill="#fff0cb"/><rect x="27" y="58" width="43" height="1" fill="#fff0cb"/><rect x="27" y="59" width="43" height="1" fill="#fff0cb"/><rect x="27" y="60" width="43" height="1" fill="#fff0cb"/><rect x="27" y="61" width="43" height="1" fill="#fff0cb"/><rect x="27" y="62" width="43" height="1" fill="#fff0cb"/><rect x="27" y="63" width="43" height="1" fill="#fff0cb"/><rect x="27" y="64" width="43" height="1" fill="#fff0cb"/><rect x="27" y="65" width="43" height="1" fill="#fff0cb"/><rect x="27" y="66" width="43" height="1" fill="#fff0cb"/><rect x="27" y="67" width="43" height="1" fill="#fff0cb"/><rect x="27" y="68" width="43" height="1" fill="#fff0cb"/><rect x="27" y="69" width="43" height="1" fill="#fff0cb"/><rect x="27" y="70" width="43" height="1" fill="#fff0cb"/><rect x="27" y="71" width="43" height="1" fill="#fff0cb"/><rect x="27" y="72" width="42" height="1" fill="#fff0cb"/><rect x="27" y="73" width="42" height="1" fill="#fff0cb"/><rect x="27" y="74" width="41" height="1" fill="#fff0cb"/><rect x="27" y="75" width="40" height="1" fill="#fff0cb"/><rect x="27" y="76" width="40" height="1" fill="#fff0cb"/><rect x="27" y="77" width="39" height="1" fill="#fff0cb"/><rect x="28" y="78" width="37" height="1" fill="#fff0cb"/><rect x="29" y="79" width="36" height="1" fill="#fff0cb"/><rect x="30" y="80" width="34" height="1" fill="#fff0cb"/><rect x="31" y="81" width="33" height="1" fill="#fff0cb"/><rect x="32" y="82" width="31" height="1" fill="#fff0cb"/><rect x="32" y="83" width="30" height="1" fill="#fff0cb"/><rect x="33" y="84" width="29" height="1" fill="#fff0cb"/><rect x="34" y="85" width="27" height="1" fill="#fff0cb"/><rect x="35" y="86" width="25" height="1" fill="#fff0cb"/><rect x="36" y="87" width="24" height="1" fill="#fff0cb"/><rect x="86" y="33" width="1" height="1" fill="#f7e4b4"/><rect x="85" y="34" width="3" height="1" fill="#f7e4b4"/><rect x="84" y="35" width="5" height="1" fill="#f7e4b4"/><rect x="82" y="36" width="8" height="1" fill="#f7e4b4"/><rect x="81" y="37" width="10" height="1" fill="#f7e4b4"/><rect x="80" y="38" width="11" height="1" fill="#f7e4b4"/><rect x="79" y="39" width="13" height="1" fill="#f7e4b4"/><rect x="78" y="40" width="15" height="1" fill="#f7e4b4"/><rect x="77" y="41" width="17" height="1" fill="#f7e4b4"/><rect x="76" y="42" width="19" height="1" fill="#f7e4b4"/><rect x="74" y="43" width="22" height="1" fill="#f7e4b4"/><rect x="73" y="44" width="24" height="1" fill="#f7e4b4"/><rect x="72" y="45" width="25" height="1" fill="#f7e4b4"/><rect x="71" y="46" width="26" height="1" fill="#f7e4b4"/><rect x="70" y="47" width="27" height="1" fill="#f7e4b4"/><rect x="70" y="48" width="28" height="1" fill="#f7e4b4"/><rect x="69" y="49" width="29" height="1" fill="#f7e4b4"/><rect x="69" y="50" width="29" height="1" fill="#f7e4b4"/><rect x="68" y="51" width="30" height="1" fill="#f7e4b4"/><rect x="68" y="52" width="31" height="1" fill="#f7e4b4"/><rect x="68" y="53" width="31" height="1" fill="#f7e4b4"/><rect x="67" y="54" width="32" height="1" fill="#f7e4b4"/><rect x="67" y="55" width="32" height="1" fill="#f7e4b4"/><rect x="66" y="56" width="34" height="1" fill="#f7e4b4"/><rect x="66" y="57" width="34" height="1" fill="#f7e4b4"/><rect x="65" y="58" width="35" height="1" fill="#f7e4b4"/><rect x="65" y="59" width="35" height="1" fill="#f7e4b4"/><rect x="64" y="60" width="37" height="1" fill="#f7e4b4"/><rect x="64" y="61" width="37" height="1" fill="#f7e4b4"/><rect x="64" y="62" width="37" height="1" fill="#f7e4b4"/><rect x="63" y="63" width="38" height="1" fill="#f7e4b4"/><rect x="63" y="64" width="38" height="1" fill="#f7e4b4"/><rect x="62" y="65" width="39" height="1" fill="#f7e4b4"/><rect x="62" y="66" width="39" height="1" fill="#f7e4b4"/><rect x="61" y="67" width="39" height="1" fill="#f7e4b4"/><rect x="61" y="68" width="39" height="1" fill="#f7e4b4"/><rect x="61" y="69" width="39" height="1" fill="#f7e4b4"/><rect x="61" y="70" width="38" height="1" fill="#f7e4b4"/><rect x="61" y="71" width="38" height="1" fill="#f7e4b4"/><rect x="60" y="72" width="39" height="1" fill="#f7e4b4"/><rect x="60" y="73" width="38" height="1" fill="#f7e4b4"/><rect x="60" y="74" width="38" height="1" fill="#f7e4b4"/><rect x="60" y="75" width="38" height="1" fill="#f7e4b4"/><rect x="60" y="76" width="37" height="1" fill="#f7e4b4"/><rect x="59" y="77" width="38" height="1" fill="#f7e4b4"/><rect x="59" y="78" width="38" height="1" fill="#f7e4b4"/><rect x="59" y="79" width="37" height="1" fill="#f7e4b4"/><rect x="59" y="80" width="37" height="1" fill="#f7e4b4"/><rect x="59" y="81" width="37" height="1" fill="#f7e4b4"/><rect x="59" y="82" width="36" height="1" fill="#f7e4b4"/><rect x="58" y="83" width="35" height="1" fill="#f7e4b4"/><rect x="58" y="84" width="33" height="1" fill="#f7e4b4"/><rect x="58" y="85" width="31" height="1" fill="#f7e4b4"/><rect x="58" y="86" width="30" height="1" fill="#f7e4b4"/><rect x="58" y="87" width="28" height="1" fill="#f7e4b4"/><rect x="70" y="88" width="14" height="1" fill="#f7e4b4"/><rect x="38" y="84" width="1" height="1" fill="#b8b89a"/><rect x="38" y="83" width="1" height="1" fill="#b8b89a"/><rect x="38" y="82" width="1" height="1" fill="#b8b89a"/><rect x="39" y="81" width="1" height="1" fill="#b8b89a"/><rect x="39" y="80" width="1" height="1" fill="#b8b89a"/><rect x="39" y="79" width="1" height="1" fill="#b8b89a"/><rect x="39" y="78" width="1" height="1" fill="#b8b89a"/><rect x="39" y="77" width="1" height="1" fill="#b8b89a"/><rect x="40" y="76" width="1" height="1" fill="#b8b89a"/><rect x="40" y="75" width="1" height="1" fill="#b8b89a"/><rect x="40" y="74" width="1" height="1" fill="#b8b89a"/><rect x="40" y="73" width="1" height="1" fill="#b8b89a"/><rect x="40" y="72" width="1" height="1" fill="#b8b89a"/><rect x="41" y="71" width="1" height="1" fill="#b8b89a"/><rect x="41" y="70" width="1" height="1" fill="#b8b89a"/><rect x="41" y="69" width="1" height="1" fill="#b8b89a"/><rect x="41" y="68" width="1" height="1" fill="#b8b89a"/><rect x="41" y="67" width="1" height="1" fill="#b8b89a"/><rect x="42" y="66" width="1" height="1" fill="#b8b89a"/><rect x="42" y="65" width="1" height="1" fill="#b8b89a"/><rect x="42" y="64" width="1" height="1" fill="#b8b89a"/><rect x="42" y="63" width="1" height="1" fill="#b8b89a"/><rect x="42" y="62" width="1" height="1" fill="#b8b89a"/><rect x="43" y="61" width="1" height="1" fill="#b8b89a"/><rect x="43" y="60" width="1" height="1" fill="#b8b89a"/><rect x="43" y="59" width="1" height="1" fill="#b8b89a"/><rect x="43" y="58" width="1" height="1" fill="#b8b89a"/><rect x="43" y="57" width="1" height="1" fill="#b8b89a"/><rect x="44" y="56" width="1" height="1" fill="#b8b89a"/><rect x="44" y="55" width="1" height="1" fill="#b8b89a"/><rect x="44" y="54" width="1" height="1" fill="#b8b89a"/><rect x="44" y="53" width="1" height="1" fill="#b8b89a"/><rect x="44" y="52" width="1" height="1" fill="#b8b89a"/><rect x="45" y="51" width="1" height="1" fill="#b8b89a"/><rect x="45" y="50" width="1" height="1" fill="#b8b89a"/><rect x="45" y="49" width="1" height="1" fill="#b8b89a"/><rect x="45" y="48" width="1" height="1" fill="#b8b89a"/><rect x="45" y="47" width="1" height="1" fill="#b8b89a"/><rect x="46" y="46" width="1" height="1" fill="#b8b89a"/><rect x="46" y="45" width="1" height="1" fill="#b8b89a"/><rect x="46" y="44" width="1" height="1" fill="#b8b89a"/><rect x="46" y="43" width="1" height="1" fill="#b8b89a"/><rect x="46" y="42" width="1" height="1" fill="#b8b89a"/><rect x="47" y="41" width="1" height="1" fill="#b8b89a"/><rect x="47" y="40" width="1" height="1" fill="#b8b89a"/><rect x="47" y="39" width="1" height="1" fill="#b8b89a"/><rect x="47" y="38" width="1" height="1" fill="#b8b89a"/><rect x="47" y="37" width="1" height="1" fill="#b8b89a"/><rect x="48" y="36" width="1" height="1" fill="#b8b89a"/><rect x="48" y="35" width="1" height="1" fill="#b8b89a"/><rect x="48" y="34" width="1" height="1" fill="#b8b89a"/><rect x="48" y="33" width="1" height="1" fill="#b8b89a"/><rect x="48" y="32" width="1" height="1" fill="#b8b89a"/><rect x="49" y="31" width="1" height="1" fill="#b8b89a"/><rect x="49" y="30" width="1" height="1" fill="#b8b89a"/><rect x="49" y="29" width="1" height="1" fill="#b8b89a"/><rect x="44" y="84" width="1" height="1" fill="#b8b89a"/><rect x="44" y="83" width="1" height="1" fill="#b8b89a"/><rect x="44" y="82" width="1" height="1" fill="#b8b89a"/><rect x="44" y="81" width="1" height="1" fill="#b8b89a"/><rect x="45" y="80" width="1" height="1" fill="#b8b89a"/><rect x="45" y="79" width="1" height="1" fill="#b8b89a"/><rect x="45" y="78" width="1" height="1" fill="#b8b89a"/><rect x="45" y="77" width="1" height="1" fill="#b8b89a"/><rect x="45" y="76" width="1" height="1" fill="#b8b89a"/><rect x="45" y="75" width="1" height="1" fill="#b8b89a"/><rect x="45" y="74" width="1" height="1" fill="#b8b89a"/><rect x="46" y="73" width="1" height="1" fill="#b8b89a"/><rect x="46" y="72" width="1" height="1" fill="#b8b89a"/><rect x="46" y="71" width="1" height="1" fill="#b8b89a"/><rect x="46" y="70" width="1" height="1" fill="#b8b89a"/><rect x="46" y="69" width="1" height="1" fill="#b8b89a"/><rect x="46" y="68" width="1" height="1" fill="#b8b89a"/><rect x="46" y="67" width="1" height="1" fill="#b8b89a"/><rect x="47" y="66" width="1" height="1" fill="#b8b89a"/><rect x="47" y="65" width="1" height="1" fill="#b8b89a"/><rect x="47" y="64" width="1" height="1" fill="#b8b89a"/><rect x="47" y="63" width="1" height="1" fill="#b8b89a"/><rect x="47" y="62" width="1" height="1" fill="#b8b89a"/><rect x="47" y="61" width="1" height="1" fill="#b8b89a"/><rect x="47" y="60" width="1" height="1" fill="#b8b89a"/><rect x="48" y="59" width="1" height="1" fill="#b8b89a"/><rect x="48" y="58" width="1" height="1" fill="#b8b89a"/><rect x="48" y="57" width="1" height="1" fill="#b8b89a"/><rect x="48" y="56" width="1" height="1" fill="#b8b89a"/><rect x="48" y="55" width="1" height="1" fill="#b8b89a"/><rect x="48" y="54" width="1" height="1" fill="#b8b89a"/><rect x="49" y="53" width="1" height="1" fill="#b8b89a"/><rect x="49" y="52" width="1" height="1" fill="#b8b89a"/><rect x="49" y="51" width="1" height="1" fill="#b8b89a"/><rect x="49" y="50" width="1" height="1" fill="#b8b89a"/><rect x="49" y="49" width="1" height="1" fill="#b8b89a"/><rect x="49" y="48" width="1" height="1" fill="#b8b89a"/><rect x="49" y="47" width="1" height="1" fill="#b8b89a"/><rect x="50" y="46" width="1" height="1" fill="#b8b89a"/><rect x="50" y="45" width="1" height="1" fill="#b8b89a"/><rect x="50" y="44" width="1" height="1" fill="#b8b89a"/><rect x="50" y="43" width="1" height="1" fill="#b8b89a"/><rect x="50" y="42" width="1" height="1" fill="#b8b89a"/><rect x="50" y="41" width="1" height="1" fill="#b8b89a"/><rect x="50" y="40" width="1" height="1" fill="#b8b89a"/><rect x="51" y="39" width="1" height="1" fill="#b8b89a"/><rect x="51" y="38" width="1" height="1" fill="#b8b89a"/><rect x="51" y="37" width="1" height="1" fill="#b8b89a"/><rect x="51" y="36" width="1" height="1" fill="#b8b89a"/><rect x="51" y="35" width="1" height="1" fill="#b8b89a"/><rect x="51" y="34" width="1" height="1" fill="#b8b89a"/><rect x="51" y="33" width="1" height="1" fill="#b8b89a"/><rect x="52" y="32" width="1" height="1" fill="#b8b89a"/><rect x="52" y="31" width="1" height="1" fill="#b8b89a"/><rect x="52" y="30" width="1" height="1" fill="#b8b89a"/><rect x="52" y="29" width="1" height="1" fill="#b8b89a"/><rect x="50" y="84" width="1" height="1" fill="#b8b89a"/><rect x="50" y="83" width="1" height="1" fill="#b8b89a"/><rect x="50" y="82" width="1" height="1" fill="#b8b89a"/><rect x="50" y="81" width="1" height="1" fill="#b8b89a"/><rect x="50" y="80" width="1" height="1" fill="#b8b89a"/><rect x="50" y="79" width="1" height="1" fill="#b8b89a"/><rect x="51" y="78" width="1" height="1" fill="#b8b89a"/><rect x="51" y="77" width="1" height="1" fill="#b8b89a"/><rect x="51" y="76" width="1" height="1" fill="#b8b89a"/><rect x="51" y="75" width="1" height="1" fill="#b8b89a"/><rect x="51" y="74" width="1" height="1" fill="#b8b89a"/><rect x="51" y="73" width="1" height="1" fill="#b8b89a"/><rect x="51" y="72" width="1" height="1" fill="#b8b89a"/><rect x="51" y="71" width="1" height="1" fill="#b8b89a"/><rect x="51" y="70" width="1" height="1" fill="#b8b89a"/><rect x="51" y="69" width="1" height="1" fill="#b8b89a"/><rect x="51" y="68" width="1" height="1" fill="#b8b89a"/><rect x="52" y="67" width="1" height="1" fill="#b8b89a"/><rect x="52" y="66" width="1" height="1" fill="#b8b89a"/><rect x="52" y="65" width="1" height="1" fill="#b8b89a"/><rect x="52" y="64" width="1" height="1" fill="#b8b89a"/><rect x="52" y="63" width="1" height="1" fill="#b8b89a"/><rect x="52" y="62" width="1" height="1" fill="#b8b89a"/><rect x="52" y="61" width="1" height="1" fill="#b8b89a"/><rect x="52" y="60" width="1" height="1" fill="#b8b89a"/><rect x="52" y="59" width="1" height="1" fill="#b8b89a"/><rect x="52" y="58" width="1" height="1" fill="#b8b89a"/><rect x="52" y="57" width="1" height="1" fill="#b8b89a"/><rect x="53" y="56" width="1" height="1" fill="#b8b89a"/><rect x="53" y="55" width="1" height="1" fill="#b8b89a"/><rect x="53" y="54" width="1" height="1" fill="#b8b89a"/><rect x="53" y="53" width="1" height="1" fill="#b8b89a"/><rect x="53" y="52" width="1" height="1" fill="#b8b89a"/><rect x="53" y="51" width="1" height="1" fill="#b8b89a"/><rect x="53" y="50" width="1" height="1" fill="#b8b89a"/><rect x="53" y="49" width="1" height="1" fill="#b8b89a"/><rect x="53" y="48" width="1" height="1" fill="#b8b89a"/><rect x="53" y="47" width="1" height="1" fill="#b8b89a"/><rect x="53" y="46" width="1" height="1" fill="#b8b89a"/><rect x="54" y="45" width="1" height="1" fill="#b8b89a"/><rect x="54" y="44" width="1" height="1" fill="#b8b89a"/><rect x="54" y="43" width="1" height="1" fill="#b8b89a"/><rect x="54" y="42" width="1" height="1" fill="#b8b89a"/><rect x="54" y="41" width="1" height="1" fill="#b8b89a"/><rect x="54" y="40" width="1" height="1" fill="#b8b89a"/><rect x="54" y="39" width="1" height="1" fill="#b8b89a"/><rect x="54" y="38" width="1" height="1" fill="#b8b89a"/><rect x="54" y="37" width="1" height="1" fill="#b8b89a"/><rect x="54" y="36" width="1" height="1" fill="#b8b89a"/><rect x="54" y="35" width="1" height="1" fill="#b8b89a"/><rect x="55" y="34" width="1" height="1" fill="#b8b89a"/><rect x="55" y="33" width="1" height="1" fill="#b8b89a"/><rect x="55" y="32" width="1" height="1" fill="#b8b89a"/><rect x="55" y="31" width="1" height="1" fill="#b8b89a"/><rect x="55" y="30" width="1" height="1" fill="#b8b89a"/><rect x="55" y="29" width="1" height="1" fill="#b8b89a"/><rect x="56" y="84" width="1" height="1" fill="#b8b89a"/><rect x="56" y="83" width="1" height="1" fill="#b8b89a"/><rect x="56" y="82" width="1" height="1" fill="#b8b89a"/><rect x="56" y="81" width="1" height="1" fill="#b8b89a"/><rect x="56" y="80" width="1" height="1" fill="#b8b89a"/><rect x="56" y="79" width="1" height="1" fill="#b8b89a"/><rect x="56" y="78" width="1" height="1" fill="#b8b89a"/><rect x="56" y="77" width="1" height="1" fill="#b8b89a"/><rect x="56" y="76" width="1" height="1" fill="#b8b89a"/><rect x="56" y="75" width="1" height="1" fill="#b8b89a"/><rect x="56" y="74" width="1" height="1" fill="#b8b89a"/><rect x="56" y="73" width="1" height="1" fill="#b8b89a"/><rect x="56" y="72" width="1" height="1" fill="#b8b89a"/><rect x="56" y="71" width="1" height="1" fill="#b8b89a"/><rect x="57" y="70" width="1" height="1" fill="#b8b89a"/><rect x="57" y="69" width="1" height="1" fill="#b8b89a"/><rect x="57" y="68" width="1" height="1" fill="#b8b89a"/><rect x="57" y="67" width="1" height="1" fill="#b8b89a"/><rect x="57" y="66" width="1" height="1" fill="#b8b89a"/><rect x="57" y="65" width="1" height="1" fill="#b8b89a"/><rect x="57" y="64" width="1" height="1" fill="#b8b89a"/><rect x="57" y="63" width="1" height="1" fill="#b8b89a"/><rect x="57" y="62" width="1" height="1" fill="#b8b89a"/><rect x="57" y="61" width="1" height="1" fill="#b8b89a"/><rect x="57" y="60" width="1" height="1" fill="#b8b89a"/><rect x="57" y="59" width="1" height="1" fill="#b8b89a"/><rect x="57" y="58" width="1" height="1" fill="#b8b89a"/><rect x="57" y="57" width="1" height="1" fill="#b8b89a"/><rect x="57" y="56" width="1" height="1" fill="#b8b89a"/><rect x="57" y="55" width="1" height="1" fill="#b8b89a"/><rect x="57" y="54" width="1" height="1" fill="#b8b89a"/><rect x="57" y="53" width="1" height="1" fill="#b8b89a"/><rect x="57" y="52" width="1" height="1" fill="#b8b89a"/><rect x="57" y="51" width="1" height="1" fill="#b8b89a"/><rect x="57" y="50" width="1" height="1" fill="#b8b89a"/><rect x="57" y="49" width="1" height="1" fill="#b8b89a"/><rect x="57" y="48" width="1" height="1" fill="#b8b89a"/><rect x="57" y="47" width="1" height="1" fill="#b8b89a"/><rect x="57" y="46" width="1" height="1" fill="#b8b89a"/><rect x="57" y="45" width="1" height="1" fill="#b8b89a"/><rect x="57" y="44" width="1" height="1" fill="#b8b89a"/><rect x="57" y="43" width="1" height="1" fill="#b8b89a"/><rect x="58" y="42" width="1" height="1" fill="#b8b89a"/><rect x="58" y="41" width="1" height="1" fill="#b8b89a"/><rect x="58" y="40" width="1" height="1" fill="#b8b89a"/><rect x="58" y="39" width="1" height="1" fill="#b8b89a"/><rect x="58" y="38" width="1" height="1" fill="#b8b89a"/><rect x="58" y="37" width="1" height="1" fill="#b8b89a"/><rect x="58" y="36" width="1" height="1" fill="#b8b89a"/><rect x="58" y="35" width="1" height="1" fill="#b8b89a"/><rect x="58" y="34" width="1" height="1" fill="#b8b89a"/><rect x="58" y="33" width="1" height="1" fill="#b8b89a"/><rect x="58" y="32" width="1" height="1" fill="#b8b89a"/><rect x="58" y="31" width="1" height="1" fill="#b8b89a"/><rect x="58" y="30" width="1" height="1" fill="#b8b89a"/><rect x="58" y="29" width="1" height="1" fill="#b8b89a"/><rect x="67" y="83" width="1" height="1" fill="#b8b89a"/><rect x="68" y="82" width="1" height="1" fill="#b8b89a"/><rect x="68" y="81" width="1" height="1" fill="#b8b89a"/><rect x="69" y="80" width="1" height="1" fill="#b8b89a"/><rect x="69" y="79" width="1" height="1" fill="#b8b89a"/><rect x="70" y="78" width="1" height="1" fill="#b8b89a"/><rect x="70" y="77" width="1" height="1" fill="#b8b89a"/><rect x="71" y="76" width="1" height="1" fill="#b8b89a"/><rect x="71" y="75" width="1" height="1" fill="#b8b89a"/><rect x="72" y="74" width="1" height="1" fill="#b8b89a"/><rect x="72" y="73" width="1" height="1" fill="#b8b89a"/><rect x="73" y="72" width="1" height="1" fill="#b8b89a"/><rect x="73" y="71" width="1" height="1" fill="#b8b89a"/><rect x="74" y="70" width="1" height="1" fill="#b8b89a"/><rect x="74" y="69" width="1" height="1" fill="#b8b89a"/><rect x="75" y="68" width="1" height="1" fill="#b8b89a"/><rect x="75" y="67" width="1" height="1" fill="#b8b89a"/><rect x="76" y="66" width="1" height="1" fill="#b8b89a"/><rect x="76" y="65" width="1" height="1" fill="#b8b89a"/><rect x="77" y="64" width="1" height="1" fill="#b8b89a"/><rect x="77" y="63" width="1" height="1" fill="#b8b89a"/><rect x="78" y="62" width="1" height="1" fill="#b8b89a"/><rect x="78" y="61" width="1" height="1" fill="#b8b89a"/><rect x="79" y="60" width="1" height="1" fill="#b8b89a"/><rect x="79" y="59" width="1" height="1" fill="#b8b89a"/><rect x="80" y="58" width="1" height="1" fill="#b8b89a"/><rect x="80" y="57" width="1" height="1" fill="#b8b89a"/><rect x="81" y="56" width="1" height="1" fill="#b8b89a"/><rect x="81" y="55" width="1" height="1" fill="#b8b89a"/><rect x="82" y="54" width="1" height="1" fill="#b8b89a"/><rect x="82" y="53" width="1" height="1" fill="#b8b89a"/><rect x="83" y="52" width="1" height="1" fill="#b8b89a"/><rect x="83" y="51" width="1" height="1" fill="#b8b89a"/><rect x="84" y="50" width="1" height="1" fill="#b8b89a"/><rect x="84" y="49" width="1" height="1" fill="#b8b89a"/><rect x="85" y="48" width="1" height="1" fill="#b8b89a"/><rect x="85" y="47" width="1" height="1" fill="#b8b89a"/><rect x="86" y="46" width="1" height="1" fill="#b8b89a"/><rect x="86" y="45" width="1" height="1" fill="#b8b89a"/><rect x="20" y="89" width="90" height="5" fill="#b8b89a"/></svg>
